<?xml version="1.0" encoding="UTF-8" standalone="no"?><svg xmlns="http://www.w3.org/2000/svg" xmlns:xlink="http://www.w3.org/1999/xlink" fill="#000000" height="491.9" preserveAspectRatio="xMidYMid meet" version="1" viewBox="0.0 0.0 246.5 491.9" width="246.5" zoomAndPan="magnify"><g id="change1_1"><path d="M216.83,423.12c0,0,0-0.01,0-0.01c0.09-2.16,0.17-4.03,0.23-5.53c0-0.08,0.01-0.17,0.01-0.25 c0.04-0.92,0.07-1.68,0.1-2.26c0-0.08,0.01-0.14,0.01-0.21c0-0.11,0.01-0.21,0.01-0.31c0.01-0.24,0.02-0.43,0.02-0.57 c16.13-0.34,27.81-0.88,28.24-1.65c1.04-1.88-3.86-39.57-6.57-59.71c-0.2-6.22-2.93-87.77-12.25-117.39 c-9.7-30.8-16.54-48.19-16.54-48.19s-0.32,0.07-0.9,0.19c0.65-1.45,1.15-2.76,1.47-3.89c3.17-11.11,4.13-21.01-0.07-36.27 c-0.12,0.33-0.25,0.64-0.39,0.94c-0.44-2.02-1.74-7.58-3.96-14.72l0,0c0,0,0,0,0,0c-0.21-0.67-0.42-1.35-0.65-2.04 c-0.02-0.05-0.03-0.11-0.05-0.16c-0.45-1.38-0.93-2.81-1.44-4.27c-0.02-0.05-0.04-0.1-0.06-0.16c-0.26-0.74-0.53-1.49-0.8-2.24 c0,0,0,0,0,0l0,0c-0.86-2.36-1.81-4.79-2.84-7.23c-1.64-3.89-3.52-7.04-5.53-9.62c0.15-0.06,0.3-0.13,0.44-0.18 c-3.88-5.21-8.98-9.34-19.3-13.29c1.25-1.54,2.74-4.97,0-6.39c-2.89-1.5-13.05-3.85-13.05-3.85s-2.14-1.18-4.06,0 c-1.11,0.68-1.86,2.19-2.4,3.99c-6.64-2.05-8.29-2.6-8.29-2.6c-2.85-1.71-4.28-6.56-4.28-6.56s-0.75-3.28,0.32-7.56 c1.07-4.28,5.13-11.66,5.13-11.66s7.16-2.57,7.7-9.84c0.29-3.97-1.39-5.76-2.98-6.58c1.16-4.04,1.05-7.75,1.05-7.75 s0.1-0.01,0.23-0.03c0.01,0,0.01,0,0.02,0c0.08-0.01,0.17-0.02,0.29-0.04c0,0,0.01,0,0.01,0c0.58-0.09,1.56-0.27,2.73-0.65 c0,0,0,0,0,0l0,0c2.53-0.82,5.86-2.54,7.52-6.12c2.89-6.2,1.82-17.22-6.84-20.1c-8.66-2.89-15.83,1.39-17.43,5.99 c0,0-9.52-4.6-20.32-2.57c-10.8,2.03-21.49,10.27-20.96,22.67c-0.02-0.5,0-0.97,0.02-1.45c-0.39,2.79-0.23,4.77-0.23,4.77 s-4.49,0.11-4.71,7.38c-0.21,7.27,5.56,9.62,5.56,9.62s0.43,2.25,1.71,12.41c0.15,1.2,0.38,2.3,0.68,3.32 c-7.92-1.83-15.71-1.2-20.25-0.37c-2.93,0.54-7.02,1.62-10.96,2.75c-0.06,0.02-0.11,0.03-0.17,0.05c-0.34,0.1-0.69,0.2-1.03,0.3 c-0.07,0.02-0.15,0.04-0.22,0.06c-0.38,0.11-0.76,0.22-1.13,0.33c-0.01,0-0.02,0-0.03,0.01c-0.4,0.12-0.8,0.24-1.19,0.35 c-0.03,0.01-0.07,0.02-0.1,0.03c-0.27,0.08-0.53,0.16-0.79,0.24V74c0,0-0.83,0.09-1.8,0.2l0,0c-0.01,0-0.02,0-0.03,0 c-0.21,0.02-0.43,0.05-0.65,0.08c-0.07,0.01-0.15,0.02-0.22,0.03c-0.16,0.02-0.32,0.04-0.48,0.06c-0.12,0.01-0.22,0.03-0.33,0.04 c-0.11,0.01-0.22,0.03-0.32,0.04c-0.2,0.03-0.39,0.06-0.55,0.08c-1.28,0.21-1.39-1.5-1.39-1.5c5.35-3.1,5.56-11.66,5.24-21.17 c0-0.03,0-0.06,0-0.09c1.01-0.65,1.95-1.63,2.63-3.18c1.68-3.84,0.79-10.07-1.86-13.08c-0.59-0.67-1.25-1.17-1.96-1.5 c-0.63-3.75-1.66-7.43-3.4-10.92c-0.81-1.61-2.18-3.23-3.97-4.74l0,0c0,0,0,0,0,0c-0.87-0.74-1.85-1.44-2.91-2.11 c-0.03-0.02-0.06-0.04-0.1-0.06c-1.04-0.65-2.15-1.25-3.33-1.8c-0.07-0.03-0.13-0.06-0.2-0.09c-1.17-0.53-2.39-1.01-3.66-1.43 c-0.09-0.03-0.18-0.06-0.27-0.08c-0.57-0.18-1.16-0.35-1.75-0.5c-0.07-0.02-0.13-0.04-0.2-0.05c-0.64-0.16-1.3-0.3-1.96-0.43 c-0.09-0.02-0.19-0.03-0.28-0.05c-0.57-0.1-1.14-0.19-1.71-0.26c-0.13-0.02-0.26-0.03-0.39-0.05c-0.66-0.07-1.32-0.13-1.99-0.16 c-0.06,0-0.12,0-0.18,0c-0.6-0.02-1.19-0.02-1.79-0.01c-0.16,0-0.32,0.01-0.49,0.02c-0.64,0.03-1.28,0.07-1.92,0.14 c-0.02,0-0.04,0-0.05,0c-0.65,0.08-1.3,0.19-1.95,0.31c-0.17,0.03-0.33,0.07-0.49,0.1c-0.54,0.12-1.09,0.25-1.63,0.41 c-0.11,0.03-0.23,0.06-0.35,0.1c-0.63,0.19-1.26,0.42-1.88,0.67c-0.14,0.06-0.29,0.12-0.43,0.18c-0.51,0.22-1.01,0.45-1.5,0.71 c-0.1,0.05-0.19,0.09-0.29,0.14c0.01-0.22,0.03-0.44,0.03-0.66C26.84,6.01,20.83,0,13.42,0S0,6.01,0,13.42 c0,7.41,6.01,13.42,13.42,13.42c0.82,0,1.63-0.09,2.41-0.23c0,0,0,0,0,0c-3.15,8.35-0.77,16.61,0.24,19.42 c0,0.01,0.01,0.02,0.01,0.03c0.15,0.42,0.27,0.71,0.33,0.86c0.01,0.02,0.01,0.02,0.02,0.04c0.02,0.05,0.04,0.09,0.04,0.09 s-3.85,3.74-1.07,11.98s12.3,6.2,12.3,6.2s6.74,8.77,9.95,13.26c2.68,3.75,1.48,7.57,1.01,8.73c-1.16,0.83-3.09,2.26-5.49,4.13 c0,0,0,0,0,0l0,0c-4.42,3.45-10.42,8.43-16.13,14.13C6.2,116.32,3.92,128.01,4.49,142.55c0.57,14.54,3.42,29.94,3.99,32.51 c0.06,0.28,0.47,0.48,1.13,0.62c0.02,0.01,0.05,0.01,0.07,0.02c0.75,0.15,1.82,0.24,3.11,0.26c0.04,0,0.08,0,0.13,0 c0.42,0.01,0.86,0.01,1.33,0c0,0,0.01,0,0.01,0c0.97-0.01,2.03-0.04,3.14-0.09c0.04,0,0.08,0,0.12-0.01 c0.54-0.03,1.09-0.05,1.65-0.09c0,0,0,0,0.01,0l0,0c0.1-0.01,0.2-0.01,0.31-0.02c2.53,5.4,7.01,14.32,11.21,19.52 c3.99,4.94,9.06,7.09,14.32,6.54c-0.23,8.44-0.49,19.91-0.31,21.16c0.06,0.41,2.5,0.82,6.53,1.16c-0.07,2.88-0.26,10.95-0.58,21.7 c-4.09,2.09-7.14,5.99-7.98,10.78L1.81,486.07c-0.38,2.11,1.03,4.13,3.14,4.51c2.11,0.38,4.13-1.03,4.51-3.14l40.82-229.19 c-0.68,21.05-1.69,47.38-3.01,66.82c-2.57,37.93-2.57,65.59-3.71,92.68c-1.14,27.09-1.14,39.07-1.14,42.21 c0,0.12,0.07,0.26,0.17,0.4l0,0c0,0,0,0,0,0c0.15,0.22,0.42,0.45,0.79,0.69c0,0,0,0,0,0c0.18,0.12,0.39,0.25,0.62,0.37 c0,0,0.01,0,0.01,0.01c0.34,0.19,0.73,0.38,1.16,0.57c-0.95,2.17-2.99,5.73-6.46,7.08c-5.13,2-11.12,2-15.97,4.85 c-3.16,1.86-3.88,5.17-2.35,7.72c0.03,0.05,0.07,0.11,0.1,0.16c0.09,0.15,0.19,0.29,0.3,0.43c0.05,0.07,0.11,0.13,0.17,0.2 c0.12,0.14,0.25,0.29,0.38,0.42c0.16,0.16,0.33,0.31,0.51,0.45c0.09,0.08,0.2,0.14,0.3,0.21c0.14,0.1,0.29,0.21,0.45,0.3 c0.1,0.06,0.21,0.12,0.32,0.18c0.18,0.1,0.37,0.19,0.57,0.28c0.1,0.04,0.19,0.09,0.3,0.13c0.31,0.12,0.62,0.24,0.96,0.34 c5.99,1.71,25.95,5.42,34.51,6.27c0.62,0.06,1.21,0.1,1.77,0.12c0.17,0.01,0.33,0.01,0.5,0.01c0.39,0.01,0.77,0,1.14-0.01 c0.16-0.01,0.32-0.01,0.47-0.02c0.38-0.02,0.75-0.06,1.1-0.11c0.09-0.01,0.19-0.02,0.29-0.03c0.45-0.07,0.87-0.15,1.26-0.25 c0.03-0.01,0.05-0.02,0.08-0.02c0.36-0.1,0.69-0.21,1.01-0.33c0.07-0.03,0.14-0.06,0.21-0.09c0.28-0.12,0.54-0.25,0.78-0.38 c0.05-0.03,0.1-0.05,0.15-0.08c0.58-0.35,1.07-0.76,1.47-1.21c0,0,0,0,0,0l0,0c0.93-1.07,1.38-2.41,1.48-3.85 c0.21-2.99,0.43-12.19,0.52-16.64c1.33,0.07,2.5,0.07,3.46-0.04c0.03,0,0.07-0.01,0.11-0.01c0.2-0.02,0.39-0.05,0.58-0.09 c0.06-0.01,0.12-0.02,0.18-0.03c0.17-0.03,0.32-0.07,0.47-0.12c0.06-0.02,0.11-0.03,0.16-0.05c0.14-0.05,0.27-0.1,0.38-0.15 c0.04-0.02,0.07-0.04,0.11-0.06c0.11-0.06,0.22-0.12,0.31-0.2l0,0l0,0c0.11-0.09,0.21-0.18,0.28-0.29 c2.57-3.99,9.7-92.68,11.12-108.65c1.43-15.97,5.13-36.5,7.41-57.61c2.28-21.1,2.85-31.94,4.85-35.65c2-3.71,7.7,0,9.13,4.28 c0.26,0.77,1.68,3.94,3.84,8.62c-0.33,3.91-0.57,7.54-0.7,10.77c-0.29,7.51-0.25,17.03-0.01,27.02 c-8.46,65.43-21.31,165.45-22.09,171.54c-0.27,2.13,1.23,4.08,3.36,4.35c0.17,0.02,0.34,0.03,0.5,0.03c1.93,0,3.6-1.43,3.85-3.39 c0.15-1.19,8.53-66.41,16.31-126.72c0.26,4.6,0.49,8.43,0.66,11.15c-1.04,22.01,0.26,39.61,1.71,40.64c0.3,0.21,3.35,0.39,8.31,0.54 c0.46,3.13,5.43,37.24,6.52,45.94c0.83,6.63-0.16,12.35-3.71,16.08c-0.33,0.35-0.68,0.67-1.05,0.98c-0.01,0.01-0.02,0.01-0.03,0.02 c-0.35,0.29-0.72,0.56-1.11,0.82c-0.04,0.03-0.08,0.06-0.12,0.08c-0.36,0.23-0.74,0.44-1.13,0.65c-0.08,0.04-0.15,0.08-0.22,0.12 c-0.46,0.23-0.95,0.44-1.46,0.63c-7.7,2.85-11.41,4.56-11.41,7.7c0,3.14,2.85,3.71,5.42,3.71c2.57,0,31.37,0,37.64,0 c0.36,0,0.68-0.04,0.98-0.1c0.09-0.02,0.18-0.05,0.27-0.07c0.21-0.06,0.4-0.13,0.58-0.22c0.08-0.04,0.17-0.08,0.25-0.12 c0.19-0.11,0.37-0.24,0.53-0.38c0.04-0.04,0.09-0.07,0.13-0.11c0.19-0.19,0.37-0.41,0.52-0.64c0.05-0.07,0.08-0.15,0.13-0.23 c0.1-0.18,0.2-0.37,0.29-0.57c0.04-0.1,0.08-0.21,0.12-0.32c0.07-0.21,0.14-0.42,0.2-0.65c0.03-0.11,0.06-0.21,0.08-0.32 c0.07-0.32,0.13-0.66,0.18-1.02c0.01-0.11,0.02-0.23,0.03-0.35c0.03-0.26,0.05-0.53,0.07-0.81c0.01-0.17,0.02-0.35,0.02-0.52 c0.01-0.24,0.01-0.48,0.01-0.73c0-0.19,0-0.38,0-0.57c0-0.26-0.01-0.53-0.02-0.8c-0.01-0.36-0.03-0.73-0.05-1.1 c-0.01-0.22-0.03-0.44-0.04-0.66c-0.02-0.3-0.05-0.6-0.07-0.9c-0.01-0.15-0.03-0.3-0.04-0.45c-0.21-2.33-0.52-4.79-0.75-7.18 c-0.63-6.56-0.01-35.06,0.35-49.36c0.01-0.4,0.02-0.79,0.03-1.17c0.01-0.23,0.01-0.46,0.02-0.68c0.01-0.22,0.01-0.45,0.02-0.66 c0.01-0.29,0.02-0.57,0.02-0.84c0.01-0.24,0.01-0.48,0.02-0.7c0-0.02,0-0.04,0-0.06c0.01-0.45,0.02-0.88,0.03-1.26 c0-0.01,0-0.01,0-0.02c0.01-0.38,0.02-0.72,0.03-1.03c0-0.06,0-0.12,0.01-0.18c0.01-0.26,0.01-0.5,0.02-0.7c0-0.01,0-0.02,0-0.03 c0-0.18,0.01-0.32,0.01-0.45c0.01-0.18,0.01-0.3,0.01-0.37c7.87,0.02,16.25,0.02,24.58-0.03c0.53,3.6,5.2,35.26,7.08,48.7 c1.09,7.81-0.47,11.93-3.23,14.91c-0.28,0.3-0.57,0.59-0.87,0.87c-0.01,0.01-0.02,0.02-0.03,0.03c-0.3,0.28-0.62,0.55-0.94,0.82 c0,0-0.01,0.01-0.01,0.01c-1.57,1.29-3.37,2.44-5.2,3.73c-0.05,0.03-0.1,0.07-0.14,0.1c-0.42,0.3-0.84,0.6-1.26,0.92 c-6.84,5.13-4.28,7.41-4.28,7.41s27.09,0,34.51,0c0.43,0,0.83-0.03,1.21-0.08c0.13-0.02,0.24-0.05,0.36-0.07 c0.24-0.04,0.48-0.09,0.69-0.16c0.13-0.04,0.24-0.08,0.36-0.13c0.19-0.07,0.37-0.15,0.54-0.24c0.11-0.06,0.22-0.12,0.33-0.19 c0.15-0.1,0.3-0.2,0.44-0.32c0.09-0.08,0.19-0.15,0.27-0.23c0.13-0.13,0.25-0.27,0.37-0.41c0.07-0.09,0.15-0.17,0.21-0.26 c0.13-0.19,0.25-0.4,0.37-0.62c0.03-0.07,0.07-0.13,0.11-0.19c0.13-0.27,0.24-0.55,0.34-0.85c0.04-0.13,0.07-0.26,0.11-0.39 c0.06-0.2,0.11-0.4,0.15-0.61c0.03-0.16,0.06-0.32,0.09-0.49c0.03-0.2,0.07-0.4,0.1-0.61c0.02-0.18,0.04-0.36,0.06-0.54 c0.02-0.21,0.04-0.43,0.05-0.65c0.01-0.19,0.03-0.38,0.04-0.58c0.01-0.23,0.02-0.46,0.02-0.7c0-0.2,0.01-0.4,0.01-0.61 c0-0.24,0-0.5,0-0.75c0-0.57-0.01-1.15-0.03-1.75c0-0.07,0-0.13,0-0.2c-0.05-1.64-0.14-3.38-0.19-5.21 c-0.2-6.75,0.91-35.33,1.56-50.98C216.81,423.76,216.82,423.43,216.83,423.12z M204.59,414.19l9.93,72.32L204.59,414.19 C204.59,414.19,204.59,414.19,204.59,414.19z M66.84,36.37c2.33,2.64,3.13,8.33,1.65,11.7C68.08,49,67.57,49.68,67,50.2 c-0.14-4.76-0.22-9.68-0.88-14.5C66.37,35.89,66.61,36.11,66.84,36.37z" fill="#2d622b"/></g><g id="change2_1"><path d="M226.64,235.23c-9.7-30.8-16.54-48.19-16.54-48.19s-6.65,1.41-16.97,3.18c0,0.16,0,0.32,0,0.45 c0,0.86-0.64,1.92-0.86,4.06c-0.21,2.14-1.07,11.98-1.07,11.98s-10.91,8.77-15.19,8.34c-4.28-0.43-10.64-7.52-10.64-7.52l4.2-13.74 c-14.11,1.85-30.08,3.39-44.74,3.5c0,0-10.55,62.45-11.69,91.54c-1.14,29.09,2.85,88.4,2.85,88.4s13.97-16.83,17.68-20.25 c3.71-3.42,8.56-5.13,13.69,0c5.13,5.13,13.4,12.83,17.4,16.54c3.99,3.71,10.84,3.99,14.54-0.86c3.71-4.85,9.41-11.98,11.98-15.4 c2.57-3.42,8.84-5.99,12.26-1.14c3.42,4.85,9.41,11.12,13.97,15.97c4.56,4.85,8.84,2.57,11.12-0.57 c2.28-3.14,10.27-18.54,10.27-18.54S236.34,266.03,226.64,235.23z M176.17,239.8l-18.11-10.2l4.28-10.69l21.25,8.91L176.17,239.8z" fill="#fa9082"/></g><g id="change3_1"><path d="M95.18,185.9c3.14-7.98,4.85-12.83,2.85-26.52c-0.92-6.3-2.56-15.01-3.23-23.64 c7.2-2.69,11.65-9.31,8.51-13.08c-3.21-3.85-5.56-6.63-0.64-6.84c4.92-0.21,8.34-4.06,7.49-8.56c-0.53-2.77-1.46-5.62-2.1-7.39 c6.07-6.09,11.37-10.36,11.37-10.36l10.57,29.01c0.61,1.68,2.96,1.75,3.67,0.11l14.56-33.4c0,0,3.42,1.14,20.25,6.27 c15.59,4.76,22.12,9.52,26.85,15.86c-2.14,0.77-5.31,2.68-7.53,7.38c-3.64,7.7-0.86,12.83,3.21,13.47c4.06,0.64,6.2,5.77,2.78,9.2 c-3.42,3.42-2.57,11.76,5.35,13.47c7.02,1.52,10,0.34,11.48-3.83c4.2,15.26,3.25,25.16,0.07,36.27 c-3.42,11.98-27.09,44.49-27.09,44.49l-21.1-8.84c0,0,0.29-2.59,2.9-11.44c0.93-0.12,4.11-0.59,4.65-1.68 c0.64-1.28,2.14,8.13,10.91,4.49c8.77-3.64,9.84-7.91,6.84-11.55c-2.99-3.64-2.78-7.7,0.43-8.34c3.21-0.64,3.85-7.7-2.35-12.62 c-5.03-3.99-9.63-0.11-11.2,1.51l4.14-12.41l-4.92-15.4c-3.42,8.13-8.34-7.06-16.9,0.43c-8.56,7.49,3.64,14.33-0.43,17.54 c-4.06,3.21-10.48,9.2-4.28,16.04c6.2,6.84,12.41,0.21,14.33,0.64c1.61,0.36,3.67,2.81,4.29,3.6l-1.16,3.57 c-12.65,3.95-44.91,3.95-44.91,3.95c-0.5-0.42-0.76-0.99-0.87-1.58c-0.83,1.33-2.3,2.22-3.98,2.22c-2.6,0-4.71-2.11-4.71-4.71 s2.11-4.71,4.71-4.71c1.91,0,3.55,1.15,4.29,2.79c0.04-4.64,0.2-18.83,0.2-18.83s-3.21,0.21-4.92,1.71 c-1.71,1.5-0.43,5.35-0.86,8.34c-0.41,2.89-2.02,0.2-7.51-0.18c-4.22-0.29-7.9,2.9-8.4,7.09c-1.03,8.6,2.52,14.22,6.72,12.12 c3.42-1.71,5.13,1.5,2.35,2.57c-2.53,0.97-4.16,7.61-0.88,9.11l-9.24,14.27l-19.39-10.27C82.34,217.27,92.04,193.88,95.18,185.9z M118.92,17.43c0,0,5.24,5.35,14.33,11.66c9.09,6.31,11.44,6.1,11.44,6.1l5.24,10.69l1.6-3.53c0,0,0.96,0,2.57,0.75 c1.18-4.06,1.07-7.81,1.07-7.81s7.91-0.64,10.8-6.84c2.89-6.2,1.82-17.22-6.84-20.1c-8.66-2.89-15.83,1.39-17.43,5.99 c0,0-9.52-4.6-20.32-2.57c-10.8,2.03-21.49,10.27-20.96,22.67C110.68,26.2,118.92,17.43,118.92,17.43z M122.34,33.37 c-0.53,0.75-0.43,1.6,0.32,1.92c0.75,0.32,3.21-0.64,7.27-0.43c4.06,0.21,6.74,2.78,7.38,2.14c0.64-0.64-3.74-3.64-7.06-4.49 C126.94,31.65,122.34,33.37,122.34,33.37z M107.05,33.9c-4.06,1.39-5.67,3.21-5.24,3.74c0.66,0.82,1.5-0.75,5.24-1.28 c3.74-0.53,6.42,0.96,7.59-0.21C115.82,34.97,111.11,32.51,107.05,33.9z M168.54,166.72c-2.6,0-4.71,2.11-4.71,4.71 c0,2.6,2.11,4.71,4.71,4.71c2.6,0,4.71-2.11,4.71-4.71C173.24,168.83,171.14,166.72,168.54,166.72z M204.68,133.57 c0.55,0,1.07-0.11,1.56-0.29c-0.86-2.76-1.86-5.76-3-8.88c-1.89,0.61-3.27,2.36-3.27,4.46 C199.98,131.46,202.08,133.57,204.68,133.57z M38.71,469.08c-5.13,2-11.12,2-15.97,4.85c-4.85,2.85-3.99,9.13,2,10.84 c5.99,1.71,25.95,5.42,34.51,6.27c8.56,0.86,11.41-2.28,11.69-6.27c0.29-3.99,0.57-19.11,0.57-19.11s-6.56-5.42-25.67-5.42 C45.84,460.23,43.85,467.08,38.71,469.08z M74.64,101.06l-1.16-28.54c-6.85,1.93-13.66,4.16-13.66,4.16l-19.96,9.7 c0,0-2.7,1.87-6.69,4.98l34.42,12.7L74.64,101.06z M214.52,486.51l-31.48-229.32c-1.01-7.42-7.42-13.01-14.91-13.01H57.49 c-7.32,0-13.55,5.23-14.82,12.43L1.81,486.07c-0.38,2.11,1.03,4.13,3.14,4.51c2.11,0.38,4.13-1.03,4.51-3.14l40.87-229.47 c0.61-3.48,3.63-6.01,7.16-6.01h66.36c-1.63,2.13-2.94,4.78-3.43,8.1C119,269.67,92.18,478.52,91.04,487.4 c-0.27,2.13,1.23,4.08,3.36,4.35c0.17,0.02,0.34,0.03,0.5,0.03c1.93,0,3.6-1.43,3.85-3.39c0.28-2.18,27.96-217.66,29.36-227.21 c0.9-6.15,7.04-8.65,8.72-9.23h31.3c3.62,0,6.72,2.7,7.21,6.29l31.48,229.32c0.27,1.95,1.93,3.36,3.84,3.36 c0.18,0,0.35-0.01,0.53-0.04C213.33,490.6,214.81,488.64,214.52,486.51z" fill="#f8efe6"/></g><g id="change4_1"><path d="M155.6,92.08c0.53-3.42,1.39-7.06,3.32-8.23c1.92-1.18,4.06,0,4.06,0s10.16,2.35,13.05,3.85 c2.89,1.5,1.07,5.24-0.21,6.63c-1.28,1.39-3.53,3.1-4.92,2.99c-1.39-0.11-1.6-1.28-1.6-1.28s-0.43,1.28-2.46,1.5 c-2.03,0.21-2.78-2.46-2.78-2.46s-0.53,1.71-2.03,1.92c-1.5,0.21-2.78-1.71-2.78-1.71C158.27,96.99,155.06,95.5,155.6,92.08z M104.69,132.5c-0.64-2.14-3.1-1.39-3.1-1.39s2.46-1.39,1.82-3.32c-0.64-1.92-2.57-1.6-2.57-1.6s1.39-3.1-1.82-1.92 c-3.21,1.18-8.13,5.03-10.05,9.52c-1.92,4.49-3.96,9.41-5.67,10.91c-1.71,1.5-33.69,20.64-33.69,20.64l-0.86-2.35 c-21.28,2.46-31.33,8.23-31.33,8.23s6.95,16.25,13.26,24.06c6.31,7.81,15.29,8.66,23.53,2.89c8.23-5.77,29.73-28.13,34.54-32.94 c4.81-4.81,8.56-10.05,8.56-10.05l-0.75-6.84c0,0,8.34-8.66,8.13-10.48c-0.21-1.82-1.82-0.86-1.82-0.86S105.34,134.64,104.69,132.5z M27.7,65.23c0,0,6.74,8.77,9.95,13.26c3.21,4.49,0.86,9.09,0.86,9.09l29.09,9.41V74c0,0-3.1,0.32-4.38,0.53 c-1.28,0.21-1.39-1.5-1.39-1.5c5.35-3.1,5.56-11.66,5.24-21.17c-0.32-9.52-0.11-19.78-4.6-28.77c-4.49-8.98-26.41-18.18-40.1-5.88 c-13.69,12.3-5.88,29.84-5.88,29.84s-3.85,3.74-1.07,11.98S27.7,65.23,27.7,65.23z M73.68,233.77c-1.5,1.71-6.42,4.28-7.91,8.23 c-1.5,3.96-2.35,5.24-3.74,9.95c-1.39,4.71,3.74,2.57,4.81,0.53c1.07-2.03,1.82-4.06,2.89-6.2c1.07-2.14,1.71-2.35,5.45-2.35 c3.74,0,17.54,0,17.54,0l0.75-2.14l-17.11-11.12C76.36,230.67,75.18,232.06,73.68,233.77z M88.44,248.53c0-1.28-1.71-2.03-2.67-0.32 c0,0-1.5-2.99-3.74-0.96c0,0-2.03-2.99-4.17-0.32c-2.14,2.67-2.14,2.67-2.14,2.67s0-1.07-0.43-2.78c-0.43-1.71-3.21-2.03-4.17,1.18 c-0.44,1.47-0.64,3.21-0.86,5.67c-0.21,2.46,0.43,3.96,1.92,4.06c1.5,0.11,2.46-2.46,2.46-2.46s0.43,2.25,2.25,2.14 c1.82-0.11,2.57-2.14,2.57-2.14s0.86,2.25,2.67,2.14c1.82-0.11,2.25-2.03,2.25-2.03s1.07,1.92,2.35,1.71 c1.28-0.21,4.49-5.03,4.49-5.03h-2.78C88.44,252.06,88.44,249.81,88.44,248.53z M152.5,239.12c-1.71,2.99-2.46,4.71-2.46,4.71 s0,16.36,0,20.32c0,3.96,1.92,4.28,3.53,3.53c1.6-0.75,1.82-3.42,1.82-3.42s2.89,2.14,4.28-1.6c0,0,2.67,0.96,4.28-2.67 c0,0,3.1,0.32,4.17-2.67c1.07-2.99,1.18-9.2,1.71-12.19c0.53-2.99,3.53-6.84,3.53-6.84l-15.29-8.66 C158.06,229.6,154.21,236.12,152.5,239.12z M115.6,81.06c-4.81-0.11-11.55-3.74-12.83-13.9c-1.28-10.16-1.71-12.41-1.71-12.41 s-5.77-2.35-5.56-9.62c0.21-7.27,4.71-7.38,4.71-7.38s-0.15-1.98,0.23-4.77c-0.01,0.48-0.04,0.96-0.02,1.45 c10.27-8.23,18.5-17,18.5-17s5.24,5.35,14.33,11.66c9.09,6.31,11.44,6.1,11.44,6.1l5.24,10.69l1.6-3.53c0,0,0.96,0,2.57,0.75 c0.01-0.02,0.01-0.04,0.02-0.06c1.59,0.82,3.27,2.61,2.98,6.58c-0.53,7.27-7.7,9.84-7.7,9.84s-4.06,7.38-5.13,11.66 c-1.07,4.28-0.32,7.56-0.32,7.56l-23.38,5.42C120.56,84.09,120.41,81.17,115.6,81.06z M122.66,35.29c0.75,0.32,3.21-0.64,7.27-0.43 c4.06,0.21,6.74,2.78,7.38,2.14c0.64-0.64-3.74-3.64-7.06-4.49c-3.32-0.86-7.91,0.86-7.91,0.86 C121.8,34.11,121.91,34.97,122.66,35.29z M107.05,33.9c-4.06,1.39-5.67,3.21-5.24,3.74c0.66,0.82,1.5-0.75,5.24-1.28 c3.74-0.53,6.42,0.96,7.59-0.21C115.82,34.97,111.11,32.51,107.05,33.9z M217.23,413.75l-12.68,0.11l9.97,72.65 c0.29,2.13-1.19,4.09-3.32,4.38c-0.18,0.03-0.36,0.04-0.53,0.04c-1.91,0-3.58-1.41-3.84-3.36l-10.11-73.64l-13.13,0.11 c0,0,5.13,34.79,7.13,49.05c2,14.26-4.85,16.25-11.69,21.39c-6.84,5.13-4.28,7.41-4.28,7.41s27.09,0,34.51,0 c7.41,0,6.27-7.41,5.99-16.83C214.95,465.65,217.23,413.75,217.23,413.75z M159.06,414.32l-33.37-0.57c0,0,5.42,37.07,6.56,46.2 c1.14,9.13-1.14,16.54-8.84,19.39c-7.7,2.85-11.41,4.56-11.41,7.7c0,3.14,2.85,3.71,5.42,3.71c2.57,0,31.37,0,37.64,0 c6.27,0,4.28-9.98,3.42-18.82C157.63,463.09,159.06,414.32,159.06,414.32z" fill="#f9cfa7"/></g><g id="change5_1"><path d="M82.3,218.29l-4.92,12.19c-0.1,0.25-0.34,0.41-0.6,0.41c-0.08,0-0.16-0.02-0.24-0.05 c-0.33-0.13-0.49-0.51-0.36-0.84l1.64-4.06l-25.45-1.25c-0.36-0.02-0.63-0.32-0.62-0.68c0.02-0.36,0.32-0.63,0.68-0.62l25.9,1.27 l2.77-6.86c0.13-0.33,0.51-0.49,0.84-0.36C82.28,217.58,82.44,217.96,82.3,218.29z M95.6,125.87 C95.6,125.87,95.6,125.87,95.6,125.87c0.36,0,0.65-0.28,0.66-0.64c0.21-15.32,11.2-24.44,11.31-24.53c0.28-0.23,0.32-0.63,0.09-0.91 c-0.23-0.28-0.63-0.32-0.91-0.09c-0.12,0.09-11.57,9.57-11.79,25.52C94.95,125.58,95.24,125.87,95.6,125.87z M85.61,248.01 c-0.35-0.09-0.7,0.11-0.79,0.46c-0.02,0.07-0.44,1.68-1.19,5.94c-0.06,0.35,0.17,0.69,0.53,0.75c0.04,0.01,0.08,0.01,0.11,0.01 c0.31,0,0.58-0.22,0.64-0.54c0.73-4.19,1.16-5.81,1.16-5.83C86.16,248.46,85.96,248.1,85.61,248.01z M81.76,246.98 c-0.33-0.15-0.71-0.01-0.86,0.32c-0.05,0.11-1.22,2.69-2.08,7.43c-0.06,0.35,0.17,0.69,0.52,0.75c0.04,0.01,0.08,0.01,0.12,0.01 c0.31,0,0.58-0.22,0.64-0.53c0.83-4.55,1.97-7.09,1.98-7.12C82.23,247.51,82.08,247.13,81.76,246.98z M74.64,255.91 c0.33,0,0.61-0.25,0.64-0.59c0.21-2.35,0.53-5.23,0.53-5.23l-1.29-0.14c0,0-0.32,2.89-0.54,5.25c-0.03,0.36,0.23,0.67,0.59,0.7 C74.61,255.91,74.63,255.91,74.64,255.91z M155.6,264.04c0.33,0,0.61-0.25,0.64-0.58l1.18-12.09c0.03-0.36-0.23-0.67-0.58-0.71 c-0.35-0.03-0.67,0.23-0.71,0.58l-1.18,12.08c-0.03,0.36,0.23,0.67,0.58,0.71C155.56,264.04,155.58,264.04,155.6,264.04z M161.23,251.09c-0.37-0.04-0.68,0.21-0.72,0.57l-1.18,10.05c-0.04,0.36,0.21,0.68,0.57,0.72c0.03,0,0.05,0,0.08,0 c0.32,0,0.6-0.24,0.64-0.57l1.18-10.05C161.84,251.46,161.59,251.14,161.23,251.09z M166,251.32c-0.34-0.07-0.69,0.15-0.77,0.5 l-1.28,6.2c-0.07,0.35,0.15,0.69,0.5,0.77c0.04,0.01,0.09,0.01,0.13,0.01c0.3,0,0.57-0.21,0.63-0.52l1.28-6.2 C166.57,251.73,166.35,251.39,166,251.32z M179,166.47c0.04-0.12,0.03-0.25,0-0.37c-0.08-0.27-8.46-27.09-9.41-30.26 c-0.98-3.27-3.4-6.87-3.5-7.02c-0.2-0.3-0.6-0.37-0.9-0.17c-0.3,0.2-0.37,0.6-0.17,0.9c0.02,0.04,2.42,3.59,3.34,6.67 c0.91,3.04,8.61,27.69,9.36,30.09l-8.28,26.1c-0.11,0.34,0.08,0.71,0.42,0.81c0.07,0.02,0.13,0.03,0.2,0.03 c0.27,0,0.53-0.18,0.62-0.45l7.92-24.83L179,166.47z M163.38,84.01c-0.32-0.16-0.71-0.04-0.87,0.28c-0.08,0.15-1.87,3.67-3.37,9.88 c-0.08,0.35,0.13,0.7,0.48,0.78c0.05,0.01,0.1,0.02,0.15,0.02c0.29,0,0.56-0.2,0.63-0.5c1.46-6.04,3.24-9.55,3.26-9.59 C163.82,84.57,163.7,84.18,163.38,84.01z M164.26,95.04c0.07,0.02,0.14,0.04,0.21,0.04c0.27,0,0.52-0.17,0.61-0.44l3-8.66 c0.12-0.34-0.06-0.71-0.4-0.82c-0.34-0.12-0.71,0.06-0.82,0.4l-3,8.66C163.75,94.55,163.92,94.92,164.26,95.04z M169.88,95.77 c0.09,0.04,0.17,0.06,0.26,0.06c0.25,0,0.49-0.14,0.59-0.39l3.21-7.27c0.15-0.33,0-0.71-0.33-0.85c-0.33-0.14-0.71,0-0.85,0.33 l-3.21,7.27C169.4,95.24,169.55,95.63,169.88,95.77z M101.92,136.85c-5.58,3.06-8.19,8.62-8.3,8.85c-0.15,0.32-0.01,0.71,0.32,0.86 c0.09,0.04,0.18,0.06,0.27,0.06c0.24,0,0.48-0.14,0.59-0.38c0.03-0.05,2.55-5.41,7.75-8.26c0.31-0.17,0.43-0.57,0.26-0.88 C102.63,136.79,102.24,136.68,101.92,136.85z M101.51,131.98c0.3-0.19,0.4-0.59,0.21-0.89c-0.19-0.3-0.59-0.4-0.89-0.21 c-0.25,0.16-6.17,3.9-9.21,9.55c-0.17,0.31-0.05,0.71,0.26,0.88c0.1,0.05,0.2,0.08,0.31,0.08c0.23,0,0.45-0.12,0.57-0.34 C95.63,135.7,101.45,132.02,101.51,131.98z M91.79,135.06c3.56-6.4,8.46-8.02,8.51-8.04c0.34-0.11,0.53-0.47,0.42-0.81 c-0.11-0.34-0.47-0.53-0.81-0.42c-0.22,0.07-5.42,1.76-9.25,8.64c-0.17,0.31-0.06,0.71,0.25,0.88c0.1,0.06,0.21,0.08,0.31,0.08 C91.45,135.39,91.67,135.27,91.79,135.06z M115.43,63.28c-0.35-0.08-0.7,0.13-0.78,0.48c-0.08,0.35,0.13,0.7,0.48,0.78 c0.11,0.03,1.21,0.28,2.77,0.28c2.48,0,6.14-0.63,8.89-3.8c0.24-0.27,0.21-0.68-0.06-0.91c-0.27-0.23-0.68-0.21-0.91,0.06 C121.84,64.73,115.49,63.3,115.43,63.28z M127.42,46.84c0.92,0,1.66-0.74,1.66-1.66c0-0.92-0.74-1.66-1.66-1.66 c-0.92,0-1.66,0.74-1.66,1.66C125.76,46.1,126.5,46.84,127.42,46.84z M108.81,48.12c0.92,0,1.66-0.74,1.66-1.66 c0-0.92-0.74-1.66-1.66-1.66c-0.92,0-1.66,0.74-1.66,1.66C107.15,47.38,107.9,48.12,108.81,48.12z M97.9,48.69 c-0.55-2.56-0.3-5.8,1.25-7.06c2.48-2.01,10.61-1.74,13.55-0.75c1.48,0.49,2.26,1.75,2.67,3c0.84-0.3,2.45-0.68,4.07-0.15 c0-0.05,0.01-0.11,0.01-0.17c0.19-2.05,0.92-3.39,2.11-3.85c3.15-1.24,12.53-1.36,14.76-0.18c0.89,0.47,1.61,1.56,2.03,3.08 c0.11,0.4,0.2,0.86,0.26,1.35l12.15-2.25c0.35-0.07,0.69,0.17,0.75,0.52c0.07,0.35-0.17,0.69-0.52,0.75l-12.28,2.27 c0.04,1.73-0.28,3.67-1.29,5.34c-1.04,1.72-3.28,2.56-4.98,2.96c-1.36,0.32-2.83,0.47-4.24,0.47c-2.31,0-4.46-0.41-5.69-1.19 c-1.87-1.18-3-4.69-3.11-7.73c-1.46-0.67-3.07-0.21-3.74,0.04c0.09,0.55,0.13,1.04,0.14,1.39c0.06,0.01,0.12,0.02,0.17,0.04 c0.32,0.16,0.46,0.54,0.3,0.87c-0.02,0.03-1.58,3.28-2.09,5.73c-0.1,0.5,0.05,0.75,0.17,0.89c0.57,0.68,2.17,0.79,2.71,0.79 c0.4,0.01,0.66,0.27,0.66,0.63c0.01,0.36-0.27,0.66-0.63,0.66c-0.02,0-0.06,0-0.12,0c-0.56,0-2.64-0.08-3.62-1.25 c-0.2-0.24-0.4-0.61-0.46-1.1c-1.29,0.19-3.99,0.53-6.67,0.53c-1.57,0-3.12-0.12-4.38-0.45C99.94,53.38,98.5,51.49,97.9,48.69z M123.22,51.75c1.67,1.05,5.76,1.3,8.94,0.55c2.06-0.49,3.54-1.33,4.17-2.37c1.29-2.12,1.32-5.03,0.78-6.97 c-0.32-1.14-0.83-1.99-1.39-2.28c-0.81-0.43-3.24-0.65-5.89-0.65c-2.98,0-6.24,0.29-7.8,0.9c-0.68,0.27-1.15,1.28-1.29,2.77 C120.45,46.84,121.65,50.76,123.22,51.75z M99.17,48.42c0.49,2.27,1.62,3.84,3.02,4.21c3.34,0.88,9.24,0.08,10.85-0.16 c0.44-1.83,1.3-3.86,1.77-4.9c-0.17-0.12-0.29-0.32-0.28-0.55c0-0.04,0.15-4.12-2.23-4.92c-2.89-0.96-10.35-1.06-12.33,0.53 C99.01,43.41,98.65,46.01,99.17,48.42z M15.83,26.61c-3.88,10.28,0.64,20.44,0.64,20.44s2.25-1.6,2.99-1.6 c0.75,0,5.99,5.88,6.95,5.24c0.96-0.64,4.6-16.15,4.6-16.15s19.38-3.08,27.47-16.18c-7.12-6-20.84-10.1-31.68-4.28 c0.01-0.22,0.03-0.44,0.03-0.66C26.84,6.01,20.83,0,13.42,0S0,6.01,0,13.42c0,7.41,6.01,13.42,13.42,13.42 C14.25,26.84,15.05,26.76,15.83,26.61z M47.8,46.52c-0.71,0-1.28,0.57-1.28,1.28c0,0.71,0.57,1.28,1.28,1.28 c0.71,0,1.28-0.57,1.28-1.28C49.09,47.09,48.51,46.52,47.8,46.52z M61.49,45.45c0.71,0,1.28-0.57,1.28-1.28s-0.57-1.28-1.28-1.28 c-0.71,0-1.28,0.57-1.28,1.28S60.78,45.45,61.49,45.45z M62.06,33.81c2.21-0.65,4.2-0.06,5.76,1.7c2.65,3.01,3.54,9.24,1.86,13.08 c-1.6,3.66-4.67,4.29-6.6,4.29c-0.64,0-1.13-0.07-1.43-0.12c-0.38,1.22-1.45,2.29-2.24,2.84c-0.11,0.08-0.24,0.12-0.37,0.12 c-0.2,0-0.4-0.1-0.53-0.28c-0.21-0.29-0.13-0.7,0.16-0.9c0.03-0.02,2.66-1.9,1.55-3.48c-1.45-2.07-4.5-5.24-4.53-5.27 c-0.25-0.26-0.24-0.67,0.02-0.92c0.14-0.14,0.33-0.19,0.51-0.17c-0.01-0.2-0.02-0.45-0.03-0.74c-1.02-0.16-1.77,0.6-1.8,0.64 c-0.04,0.04-0.08,0.06-0.12,0.09c0.68,2.58,0.66,5.42-0.17,7.81c-0.96,2.77-3.63,4.67-6.8,4.83c-0.15,0.01-0.29,0.01-0.44,0.01 c-3.17,0-5.89-1.8-7.33-4.89c-2.03-4.33-1.86-9.29,0.41-12.33c1.64-2.2,4.23-3.16,7.33-2.7c2.32,0.35,4.28,1.72,5.64,3.98 c0.37,0.61,0.67,1.28,0.93,1.96c0.47-0.36,1.31-0.83,2.38-0.72C56.4,39.7,57.45,35.17,62.06,33.81z M51.79,42.08 c-0.81-1.34-2.29-3.01-4.73-3.37c-0.45-0.07-0.89-0.1-1.31-0.1c-2.03,0-3.67,0.78-4.79,2.29c-1.96,2.63-2.07,7.16-0.27,11.01 c1.28,2.73,3.71,4.28,6.53,4.13c2.6-0.13,4.86-1.73,5.64-3.96C53.93,49,53.49,44.88,51.79,42.08z M62.42,35.06 c-5.91,1.74-4.9,10.01-4.89,10.1c0.03,0.2-0.05,0.39-0.18,0.53c1.02,1.09,2.85,3.11,3.92,4.64c0.27,0.38,0.42,0.77,0.48,1.16 c0.71,0.15,4.88,0.85,6.74-3.4c1.48-3.38,0.68-9.07-1.65-11.7C65.62,34.99,64.14,34.55,62.42,35.06z M59.72,59.84 c0.33-0.14,0.48-0.53,0.33-0.85c-0.14-0.33-0.52-0.47-0.85-0.33c-3.92,1.72-6.77-0.84-6.89-0.95c-0.26-0.24-0.67-0.23-0.91,0.04 c-0.24,0.26-0.23,0.67,0.03,0.91c0.11,0.1,2.08,1.9,5.06,1.9C57.46,60.55,58.55,60.35,59.72,59.84z M65.79,74.2 c-0.92,0.11-1.96,0.23-2.59,0.34c-1.28,0.21-1.39-1.5-1.39-1.5c-3.21,1.39-8.23,2.03-11.76,1.18C46.59,73.38,59.14,82.38,65.79,74.2 z M22.54,57.24c0.28,0.46,0.86,1.03,1.99,1.16c0.02,0,0.05,0,0.07,0c0.33,0,0.61-0.24,0.64-0.58c0.04-0.36-0.22-0.68-0.57-0.72 c-0.5-0.06-0.83-0.23-1.02-0.55c-0.47-0.76-0.11-2.17,0.06-2.65c0.09-0.23,0.03-0.5-0.14-0.67c-2.62-2.72-5.44-1.56-6.56-0.57 c-0.27,0.24-0.29,0.64-0.06,0.91c0.23,0.27,0.64,0.3,0.91,0.06c0.23-0.2,2.24-1.83,4.5,0.23C22.15,54.6,21.86,56.13,22.54,57.24z M36.7,40.46c0.1,0.05,0.2,0.07,0.3,0.07c0.23,0,0.46-0.13,0.57-0.35c0.09-0.18,2.34-4.31,7.81-3.72c0.35,0.03,0.67-0.22,0.71-0.57 s-0.22-0.67-0.57-0.71c-6.34-0.67-9.06,4.36-9.09,4.41C36.26,39.91,36.38,40.29,36.7,40.46z M55.17,34.89 c-0.16,0.32-0.03,0.71,0.29,0.87c0.09,0.05,0.19,0.07,0.29,0.07c0.24,0,0.46-0.13,0.58-0.35c0.07-0.14,1.83-3.49,6.37-3.49 c0.36,0,0.65-0.29,0.65-0.65c0-0.36-0.29-0.65-0.65-0.65C57.34,30.69,55.26,34.72,55.17,34.89z M119.45,89.13 c-0.27,0.24-0.29,0.65-0.06,0.91c0.13,0.15,0.31,0.22,0.49,0.22c0.15,0,0.3-0.05,0.43-0.16c1.62-1.43,2.1-2.91,2.11-4.16 c3.76-1.45,7.91-3.23,8.8-4.35c1.71-2.14-0.96-3.74-5.45-1.71c-2.2,1-5.31,1.37-7.9,1.5c1.51,0.46,2.16,1.29,2.45,1.91 c0.02,0.1,0.05,0.2,0.11,0.28c0,0,0.01,0.02,0.02,0.03c0.09,0.28,0.11,0.48,0.11,0.48s0.34,0.54,0.55,1.37 C121.22,86.49,120.94,87.82,119.45,89.13z M133.1,134.71c0.87,0,1.57-0.7,1.57-1.57c0-0.87-0.7-1.57-1.57-1.57s-1.57,0.7-1.57,1.57 C131.54,134.01,132.24,134.71,133.1,134.71z M138.67,159.23c-0.87,0-1.57,0.7-1.57,1.57s0.7,1.57,1.57,1.57s1.57-0.7,1.57-1.57 S139.53,159.23,138.67,159.23z M140.95,192.31c0.87,0,1.57-0.7,1.57-1.57s-0.7-1.57-1.57-1.57c-0.87,0-1.57,0.7-1.57,1.57 S140.08,192.31,140.95,192.31z M155.17,35.29l0,0.26C155.17,35.39,155.17,35.29,155.17,35.29z M155.17,35.29 c0,0,1.42-0.12,3.28-0.72c-0.82-6.57-6.95-11.93-6.95-11.93C156.06,28.62,155.17,35.29,155.17,35.29z M50.68,163.89 c-0.18-0.31-0.58-0.41-0.89-0.23l-13.4,7.98c-0.31,0.18-0.41,0.58-0.23,0.89c0.12,0.2,0.34,0.32,0.56,0.32 c0.11,0,0.23-0.03,0.33-0.09l13.4-7.98C50.76,164.6,50.86,164.2,50.68,163.89z M49.55,163.3c0.06,0,0.12-0.01,0.18-0.02 c0.34-0.1,0.54-0.45,0.45-0.8l-8.98-31.8c-0.1-0.35-0.46-0.55-0.8-0.45c-0.34,0.1-0.54,0.45-0.45,0.8l8.98,31.8 C49.01,163.12,49.27,163.3,49.55,163.3z M9,175.5c1.4,0.58,5.48,0.55,10.18,0.27l-1.75-4.56C17.43,171.21,10.74,173.69,9,175.5z M119.34,226.36c0.34-0.12,0.52-0.48,0.4-0.82c-0.12-0.34-0.48-0.52-0.82-0.4c-5.71,1.96-12.96,1.92-15.85,1.82 c7.55-11.22,21.41-31.6,21.58-31.85c0.13-0.19,0.13-0.42,0.05-0.62c0.19-3.75,1.44-29.93,0.27-33.12c-0.74-2.01-3.2-4.42-6.06-7.22 c-1.98-1.94-4.03-3.95-5.7-6.01c-3.86-4.78-3.71-13.39-3.71-13.48c0.01-0.36-0.27-0.65-0.63-0.66c-0.36-0.03-0.65,0.27-0.66,0.63 c-0.01,0.37-0.17,9.17,3.99,14.33c1.72,2.12,3.79,4.16,5.81,6.12c2.63,2.57,5.11,5,5.75,6.74c0.93,2.53,0.05,24.53-0.36,32.79 c0,0.01,0.01,0.02,0.01,0.04c-1.63,2.39-14.85,21.84-21.87,32.28c-0.24,0.08-0.43,0.29-0.45,0.56c0,0.03,0.01,0.06,0.01,0.09 c-1.44,2.15-2.59,3.87-3.26,4.88c-4.05,6.19-4.94,8.37-4.98,8.46c-0.13,0.33,0.03,0.71,0.36,0.84c0.08,0.03,0.16,0.05,0.24,0.05 c0.26,0,0.5-0.15,0.6-0.41c0.01-0.02,0.91-2.19,4.86-8.23c0.67-1.02,1.84-2.77,3.3-4.95c0.62,0.04,1.73,0.08,3.16,0.08 C109,228.3,114.6,227.99,119.34,226.36z M145.65,483.05c-4.02-7.4-11.56-7.88-17.12-7.02c-1.34,1.4-3.02,2.53-5.13,3.31 c-7.7,2.85-11.41,4.56-11.41,7.7c0,3.14,2.85,3.71,5.42,3.71c2.57,0,31.37,0,37.64,0c4.83,0,4.76-5.93,4.07-12.69L145.65,483.05z M213.53,479.31l0.99,7.2c0.29,2.13-1.19,4.09-3.32,4.38c-0.18,0.03-0.36,0.04-0.53,0.04c-1.91,0-3.58-1.41-3.84-3.36l-0.9-6.54 l-2.31,0.52c-4.62-5.54-12.23-4.55-16.13-3.55c-2.28,2.46-5.37,4.15-8.46,6.48c-6.84,5.13-4.28,7.41-4.28,7.41s27.09,0,34.51,0 c6.37,0,6.42-5.48,6.13-12.99L213.53,479.31z M204.55,413.86l1.07,7.78l11.17,2.62c0.26-6.27,0.45-10.5,0.45-10.5L204.55,413.86z M197.51,419.74l-0.8-5.81l-13.13,0.11c0,0,0.14,0.93,0.37,2.52L197.51,419.74z M158.83,422.67c0.13-5.03,0.22-8.35,0.22-8.35 l-33.37-0.57c0,0,0.12,0.83,0.33,2.24L158.83,422.67z M44.76,461.8l1.08-1.57c0,0-1.97-0.13-3.25,0.11 C42.9,460.78,43.66,461.28,44.76,461.8z M71.51,465.65l-0.2,2.46c2.86,0.17,5.03-0.02,5.91-0.74 C76.18,465.89,71.51,465.65,71.51,465.65z M113.37,56.45c-0.1,0.06-2.49,1.59-3.69,5.19c-0.11,0.34,0.07,0.71,0.41,0.82 c0.07,0.02,0.14,0.03,0.2,0.03c0.27,0,0.52-0.17,0.61-0.44c1.05-3.14,3.13-4.49,3.15-4.51c0.3-0.19,0.39-0.59,0.2-0.89 C114.07,56.35,113.67,56.26,113.37,56.45z M122.65,54.08c-0.35-0.05-0.68,0.19-0.74,0.54c-0.05,0.35,0.19,0.68,0.54,0.74 c0.05,0.01,5.51,0.86,8.46,4.07c0.13,0.14,0.3,0.21,0.48,0.21c0.16,0,0.31-0.06,0.44-0.17c0.26-0.24,0.28-0.65,0.04-0.92 C128.62,55.01,122.89,54.11,122.65,54.08z M153.87,46.06c-0.22-0.29-0.62-0.34-0.91-0.13l-3.42,2.57c-0.15,0.12-0.25,0.3-0.26,0.49 c-0.01,0.19,0.07,0.38,0.21,0.51c0.22,0.2,2.06,1.99,0.19,4.56c-0.21,0.29-0.15,0.69,0.14,0.9c0.12,0.08,0.25,0.12,0.38,0.12 c0.2,0,0.4-0.09,0.52-0.27c1.74-2.39,1.03-4.53,0.15-5.71l2.86-2.14C154.03,46.75,154.08,46.35,153.87,46.06z M20.12,481.16 c0.74,1.58,2.28,2.94,4.61,3.6c5.99,1.71,25.95,5.42,34.51,6.27c5.45,0.55,8.58-0.53,10.21-2.42c-6.36-0.85-14.52-3.55-29.32-8.42 C27.69,476.1,22.38,478.54,20.12,481.16z" fill="#000000"/></g></svg>