<?xml version="1.0" encoding="UTF-8" standalone="no"?><svg xmlns="http://www.w3.org/2000/svg" xmlns:xlink="http://www.w3.org/1999/xlink" fill="#000000" height="494.1" preserveAspectRatio="xMidYMid meet" version="1" viewBox="-0.8 -0.7 401.1 494.1" width="401.1" zoomAndPan="magnify"><g id="change1_1"><path d="M398.93,460.79l-9.54-19.08v0l-0.09-0.17l1.82-1.05c0,0-26.47-53.5-32.26-66.46 c-5.79-12.96-13.24-26.75-14.62-47.98c-1.38-21.23-4.14-53.5-6.07-71.15c-0.63-5.76-2.08-12.42-3.75-18.79l0,0 c-0.02-0.07-0.04-0.13-0.05-0.2c-0.28-1.07-0.57-2.13-0.85-3.17l1.35-0.04c0,0-3.99-23.41-10.45-44.22c0.8-2.43,1.29-5.01,1.35-7.69 c0.16-8.18,0.32-26.91,0.38-34.92c0.05-0.03,0.1-0.06,0.15-0.09c0.02-0.01,0.04-0.03,0.06-0.04l0.03,0.51c0,0,10.55-6.41,10.13-8.48 c-0.02-0.11-0.08-0.18-0.15-0.24c0-0.03,0.01-0.05,0.01-0.08c0-0.11-0.02-0.21-0.07-0.3c-0.21-0.42-0.43-0.86-0.65-1.34 c-0.05-0.11-0.11-0.23-0.16-0.34c-0.18-0.38-0.36-0.75-0.55-1.16c-3.43-7.32-8.65-19.38-14.98-28.6 c-7.24-10.55-13.03-15.3-26.27-17.79c-6.82-1.28-13.41-3.87-18.21-6.09c-2.17-1-3.97-1.93-5.25-2.62l-6.52-15.7l1.03-4.34 c0,0,2.28-1.45,4.96-5.79c2.69-4.34-0.21-8.48-0.21-8.48c1.75-4.07,3.21-8.08,4.05-11.93c1.33,0.53,2.9,0.82,5.67-0.27 c4.76-1.86,5.48-5.38,6.62-7.86c1.14-2.48,5.69-4.55,5.38-9.72c-0.31-5.17-5.07-6.1-6.51-8.07c-1.45-1.96-1.34-6.1-6.2-6.93 c-4.86-0.83-7.76,2.69-9.41,3.62c-1.65,0.93-5.17-0.62-8.58,1.34c-2.68,1.54-3.19,3.96-3.29,4.94c-10.24-1.97-23.03-1.64-29.7,1.57 c-9.15,4.4-9,18.93-8.65,24.05c-0.23,3.61-0.04,6.15-0.04,6.15s-4.76,2.07-4.55,6.83c0.21,4.76,5.38,7.45,5.38,7.45 c1.03,17.37,4.34,21.72,11.17,24.82s15.93-1.03,15.93-1.03L248,93.09l0.03,0.08c-0.67,0.58-1.37,1.19-2.11,1.83 c-0.03,0.02-0.06,0.05-0.08,0.07c-0.73,0.63-1.48,1.29-2.26,1.97c-0.01,0.01-0.02,0.02-0.03,0.03v0c-4.03,3.53-8.51,7.51-11.68,10.5 c-7.24,6.83-9.51,20.89-11.79,31.85c-0.92,4.43-1.69,8.15-2.29,11.02c-0.2,0.95-0.38,1.8-0.53,2.56c-0.06,0.29-0.12,0.56-0.17,0.82 c-0.07,0.35-0.14,0.68-0.2,0.98c-0.05,0.23-0.09,0.44-0.13,0.64c-0.09,0.44-0.17,0.8-0.22,1.06c-0.07,0.35-0.12,0.55-0.12,0.55 l2.63,0.42l-0.29,1.4l-0.94,4.55l-32.03,0.82c-6.73-7.93-15.01-9.57-15.76-9.7c-0.01-0.09-0.05-0.18-0.1-0.26 c-0.33-1.81-2.82-13.4-13.75-14.92c-4.07-0.57-9.1-0.8-14.53-0.6c1.67-1.37,3.34-3.11,5.01-5.33c5.03-6.68,1.9-16.82,0.4-20.72 c-1.15-4.1-2.19-6.72-2.19-6.72c3.45-9.79-4.27-13.65-4.27-13.65s-3.17-9.65-9.79-17.51c-6.62-7.86-22.34-10.62-36.54-1.24 c-1.72,1.13-3.09,2.49-4.2,3.99c-2.66,2.1-9.27,8.86-8.9,16.41c0.4,8.15,5.58,15.63,5.9,16.09c-1.22,2.55-2.29,6.65,0.03,11.21 c3.35,6.57,10.41,5.59,12.24,5.21c1.2,1.8,2.72,3.48,5.27,5.27c0.22,0.15,0.46,0.32,0.71,0.49c1.08,2.9,2.95,7.96,4.25,11.5 c0.21,0.58,0.38,1.15,0.52,1.71c-0.17,0.08-0.35,0.15-0.52,0.22c-14.89,6.89-9.65,17.1-9.65,17.1s-3.58,2.21-14.34,9.93 c-10.75,7.72-15.99,17.1-13.24,30.89c2.67,13.34,8.69,39.59,9.08,41.28c0,0.01-0.01,0.03-0.01,0.04l-27.27-39.11 c0,0-4.48-6.83-9.44-13.24c-4.96-6.41-17.58-12-20.48-13.65c-2.9-1.65-3.93,2.28-2.07,3.72c1.58,1.23,7.47,5.43,9.22,6.67 c-0.06,0.09-0.11,0.18-0.12,0.29c-1.75-0.2-6.91-0.86-10.96-2.21c-4.96-1.65-8.69-4.14-11.17-5.17c-2.48-1.03-3.72,1.65-3.72,1.65 s-3.07,0.21-2.49,2.66c0,0,0,0,0,0c-0.01,0.01-0.01,0.02-0.01,0.03c-0.22,0.03-3.05,0.5-2.25,2.69c0,0-1.45,1.45,0,3.72 c1.45,2.28,4.96,6.41,9.51,9.51c4.55,3.1,17.58,7.24,22.54,9.72c4.96,2.48,6.55,6.55,6.55,6.55s24.82,49.64,31.99,61.22 c5.25,8.48,12.1,10.74,15.41,11.35c-14.39,5.02-31.74,11.19-41.06,15.4c-17.1,7.72-17.1,25.92-13.51,39.43 c0.04,0.14,0.09,0.32,0.14,0.47c-8.24,14.75-13.06,32.47-13.06,51.51c0,24.49,7.97,46.79,20.95,63.4c-0.9,2.66-1.42,5.54-1.42,8.58 c0,12.87,8.95,23.3,19.99,23.3c5.55,0,10.56-2.65,14.18-6.9c7.53,2.92,15.55,4.52,23.88,4.52c8.1,0,15.91-1.5,23.25-4.27h3.61 c3.6,4.11,8.52,6.65,13.96,6.65c11.04,0,19.99-10.43,19.99-23.3c0-3.97-0.86-7.71-2.36-10.98c2.41-3.31,4.63-6.82,6.64-10.51 c13.85,25.5,37.84,42.41,65.08,42.41c6.31,0,12.45-0.92,18.33-2.63c0.73,2.35,3.02,2.54,7.45,2.54c5.52,0,40.81,0,47.98,0 s7.17-8.27,6.62-12.41c-0.3-2.25-0.84-6.13-1.28-9.2l2.93-0.17c0,0-3.38-21.91-7.18-46.73c1.76-7.75,2.72-15.88,2.72-24.28 c0-19.57-5.09-37.73-13.75-52.72c-1.14-19.39,0.56-41.18,0.56-41.18s19.58,62.32,32.54,90.17c12.96,27.85,36.68,63.7,36.68,63.7 l4.38-2.53c0.05,0.18,0.1,0.38,0.16,0.59c0.03,0.1,0.05,0.21,0.07,0.31c0.03,0.11,0.05,0.22,0.08,0.34 c0.03,0.14,0.06,0.29,0.09,0.44c0.02,0.09,0.04,0.18,0.05,0.27c0.03,0.17,0.06,0.35,0.09,0.52c0.01,0.08,0.03,0.15,0.04,0.23 c0.03,0.19,0.06,0.39,0.09,0.6c0.01,0.06,0.02,0.13,0.02,0.19c0.03,0.22,0.05,0.44,0.07,0.66c0,0.05,0.01,0.11,0.01,0.16 c0.02,0.24,0.04,0.47,0.05,0.72c0,0.04,0,0.08,0,0.12c0.01,0.26,0.02,0.52,0.02,0.78c-0.01,2.88-0.76,5.99-3.3,8.19 c-6.07,5.24-11.58,8.55-17.37,11.58c-5.79,3.03-3.58,8,1.38,8c4.96,0,6.07,0,14.34,0c8.27,0,16.82-6.07,23.16-10.2 c3.85-2.51,9.43-6.95,13.22-10.06C399.62,467.03,400.34,463.61,398.93,460.79z M262.3,427.32l-30.46-25.93 c0.01-0.04,0.03-0.09,0.04-0.13l25.79,1.48C259.22,411.21,260.8,419.54,262.3,427.32z M257.44,401.48l-25.47-1.46 c-0.02-0.2-0.05-0.4-0.1-0.59l21.3-22.35C254.5,385.06,255.95,393.32,257.44,401.48z M247.45,335.42 c0.87,10.36,2.92,24.66,5.47,40.12l-21.61,22.67c-0.24-0.34-0.54-0.64-0.89-0.88V358.3c10.16-0.03,15.91-5.82,13.44-16.82 c-1.31-5.84-4.08-17.5-6.77-29.05c2.94,0.51,5.84,1.22,8.66,2.16C246.33,321.81,246.9,328.87,247.45,335.42z M245.23,307.9 c-3.15-0.92-6.37-1.61-9.65-2.04c-1.81-7.86-3.44-15.11-4.36-19.73c-2.5-12.52-8.77-15.03-17.53-15.03c0.47,0,0.93,0.01,1.38,0.03 l3.83-23.12h9.1c0,0,0,0,0,0c1.16,1.83,3.05,2.69,3.05,2.69s5.14,0,9.86,0C241.88,263.98,243.52,286.15,245.23,307.9z M194.85,184.71c0,0,23.78,1.24,31.44,1.03c7.45-0.2,12.53-3.94,13.75-10.43c1.03,5.8,1.32,14.99,1.14,23.26 c-0.15,7.06-0.88,23.58-1.24,31.63c-2.81,1.06-5.85,2.21-8.07,3.12c-2.54,1.04-3.66,3.18-4.19,5.58h-19.41 c-0.21-1.39-0.47-2.84-0.8-4.41c-3.12-14.58-8.46-33.09-13.69-52.75C194.47,183.7,194.85,184.71,194.85,184.71z M203.88,259.58 c2.46-2.11,4.57-5.45,4.94-11.58h0.85l-3.82,23.09c-1.46,0-1.69,0-1.69,0L203.88,259.58z M204.16,379.47l20.17,17.17h-20.17V379.47z M196.71,358.31v13.18l-15.49-13.18C186.62,358.31,191.82,358.31,196.71,358.31z M179.29,358.31l17.42,14.83v23.5H174.3 c-0.19-13.7-2.86-26.68-7.51-38.33C171.02,358.31,175.2,358.31,179.29,358.31z M161.96,363.2c3.71,10.18,5.86,21.37,6.06,33.14 l-6.06-0.35V363.2z M135.32,358.31c6.2,0,12.68,0,19.2,0v6.47c-3.2,9.92-5.02,20.65-5.17,31.86h-15.81L135.32,358.31z M83.79,449.86 c0.19,0.53,1.94,5.74-1.82,9.24c-1,0.93-2.49,1.89-4.27,2.86l-0.19-21.58c1.98,1.09,3.38,1.48,3.38,1.48l2.76,8H83.79z M127.86,358.31l-1.44,31.08c-0.02-0.06-0.06-0.1-0.09-0.15c-1.67-7.18-5.31-22.73-7.4-30.93 C121.79,358.31,124.78,358.31,127.86,358.31z M43.24,455.34c-11.08-15.26-17.82-35.28-17.82-57.19c0-15.79,3.51-30.59,9.61-43.35 c8.04,21.15,28.07,65.16,32.07,74.1c1.05,2.34,2.32,4.27,3.66,5.87c0,0,0,0,0,0l-0.11,16.72c-3.33-2.92-7.47-4.66-11.96-4.66 C52.47,446.83,46.91,450.14,43.24,455.34z M151.55,453.49c-3.61-4.12-8.54-6.67-13.99-6.67c-2.24,0-4.39,0.45-6.39,1.25l2.03-43.99 h16.28c0.72,13.51,3.86,26.24,8.91,37.59C156.38,445.85,154.08,449.8,151.55,453.49z M161.83,433.54 c-3.37-9.1-5.47-19.03-6.06-29.45h12.13C167.32,414.52,165.2,424.44,161.83,433.54z M165.26,441.65c5.04-11.34,8.19-24.06,8.9-37.57 h51.55l-50.79,53.29C171.23,452.6,167.99,447.33,165.26,441.65z M229.18,484.71c-0.76,0.03-1.51,0.07-2.27,0.07 c-20.08,0-38.23-10.14-51.21-26.42l51.74-54.28h0.84c0.31,0,0.6-0.05,0.89-0.12V484.71z M229.18,396.76 c-0.29-0.07-0.58-0.12-0.89-0.12h-2.03l-22.1-18.81v-19.52c12.08,0,21.3,0,25.02,0V396.76z M230.43,484.68V403.4 c0.33-0.23,0.61-0.52,0.85-0.84l31.41,26.74c3.26,16.79,6.13,30.79,7.55,37.6C259.09,477.29,245.36,483.79,230.43,484.68z M298.23,398.15c0,0.34-0.01,0.68-0.02,1.02c-1.91-12.51-3.69-24.26-4.97-32.82C296.46,376.21,298.23,386.93,298.23,398.15z" fill="#fa9082"/></g><g id="change2_1"><path d="M204.71,310.05c2.48,14.34-11.31,34.47-28.68,34.47c-17.37,0-47.71,0-52.95,0c-5.24,0-6.89,4.96-5.52,8.82 c1.38,3.86,9.65,39.71,9.65,39.71l-3.31,56.81H83.65l-2.76-8c0,0-9.1-2.48-13.79-12.96c-4.69-10.48-31.44-69.22-35.02-82.73 c-3.58-13.51-3.58-31.71,13.51-39.43c17.1-7.72,61.22-22.06,64.53-23.72c3.31-1.65,3.31-4.14,3.31-4.14s15.43-0.96,34.14-0.66 l-13.94,16.73l13.44,14.68l35.55-28.98c5.91,0.86,11.39,1.99,16.02,3.47C198.64,284.13,202.23,295.71,204.71,310.05z M358.86,374.02 c-5.79-12.96-13.24-26.75-14.62-47.98c-1.38-21.23-4.14-53.5-6.07-71.15c-0.74-6.78-2.62-14.82-4.66-22.16l1.35-0.04 c0,0-4.55-26.68-11.79-48.4c-7.24-21.72-7.24-32.47-7.24-32.47s21.92-11.79,20.48-14.68c-3.32-6.63-9.1-20.89-16.34-31.44 c-7.24-10.55-13.03-15.3-26.27-17.79c-13.24-2.48-25.65-9.93-25.65-9.93l-14.89,10.75c0,0-14.06,12-21.3,18.82 c-7.24,6.83-9.51,20.89-11.79,31.85c-2.27,10.96-3.67,17.63-3.67,17.63l17.94,2.84c0,0,3.72,7.65,5.17,13.03 c1.45,5.38,1.86,16.13,1.65,25.65c-0.21,9.51-1.45,36.19-1.45,36.19l3.01-0.08l-2.73,3.66c0,0,4.14,57.63,7.45,97.07 c3.31,39.43,23.72,135.95,23.72,135.95l37.78-2.21c0,0-14.06-91.28-17.1-112.24c-3.03-20.96-0.55-52.67-0.55-52.67 s19.58,62.32,32.54,90.17c12.96,27.85,36.68,63.7,36.68,63.7l30.61-17.65C391.12,440.48,364.65,386.99,358.86,374.02z" fill="#2d622b"/></g><g id="change3_1"><path d="M44.7,192.57c4.96,6.41,9.44,13.24,9.44,13.24l-14.89,12.96c0,0-1.59-4.07-6.55-6.55 c-4.96-2.48-17.99-6.62-22.54-9.72c-4.55-3.1-8.07-7.24-9.51-9.51c-1.45-2.27,0-3.72,0-3.72c-0.83-2.27,2.28-2.69,2.28-2.69 c-0.62-2.48,2.48-2.69,2.48-2.69s1.24-2.69,3.72-1.65c2.48,1.03,6.2,3.52,11.17,5.17c4.96,1.65,11.58,2.27,11.58,2.27 s-7.86-5.58-9.72-7.03c-1.86-1.45-0.83-5.38,2.07-3.72C27.12,180.58,39.73,186.16,44.7,192.57z M144.87,105.98 c3.45-9.79-4.27-13.65-4.27-13.65s-3.17-9.65-9.79-17.51c-6.62-7.86-22.34-10.62-36.54-1.24s-5.52,33.78-5.52,33.78 s-5.52,6.34-1.65,13.93c3.86,7.58,12.69,5.1,12.69,5.1l4.69,3.58c0,0,3.17,8.55,5.1,13.79s0.55,9.65,0.55,9.65l8.96,10.34 l22.34-17.65c0,0-3.45-0.55-4.27-3.17c-0.28-0.9-0.45-1.35-0.55-1.57c9.96-3.37,13.51-14.74,12-22.28 C147.07,111.5,144.87,105.98,144.87,105.98z M117.91,299.91c-9.51,2.28-15.51,6-21.1,9.51c-5.58,3.52-4.34,5.38-2.28,5.38 c1.15,0,2.68-0.57,3.81-1.08c-1.55,0.86-3.66,2.31-3.4,3.77c0.39,2.16,6.9-0.7,7.58-1c-0.6,0.27-5.09,2.37-4.9,4.11 c0.21,1.86,9.72-1.45,9.72-1.45s-4.34,1.65-4.14,3.1c0.21,1.45,1.03,1.86,4.55,0.83c3.52-1.03,11.17-3.52,16.55-4.96 c5.38-1.45,14.48,0.21,22.75-8.48l-13.44-14.68C133.63,294.95,127.43,297.64,117.91,299.91z M219.67,56.07 c1.03,17.37,4.34,21.72,11.17,24.82s15.93-1.03,15.93-1.03L248,93.09l5.58,13.44l16.75-27.09l-6.62-15.93l1.03-4.34 c0,0,2.28-1.45,4.96-5.79c2.69-4.34-0.21-8.48-0.21-8.48s5.17-14.06-0.21-23.16S251.93,8.71,234.35,11.6 c-17.58,2.9-15.51,30.2-15.51,30.2s-4.76,2.07-4.55,6.83C214.5,53.38,219.67,56.07,219.67,56.07z M240.14,174.79 c0,0-1.65-8.27-5.79-14.89c-9.1-1.65-15.3-2.48-15.3-2.48l-1.24,6l-32.26,0.83c0,0,3.93,4.76,6,10.96s3.31,9.51,3.31,9.51 s23.78,1.24,31.44,1.03C233.94,185.54,239.11,181.61,240.14,174.79z M296.81,155.55l0.41,25.03c0,0-48.19,45.91-50.46,46.95 c-2.28,1.03-10.34,3.93-14.89,5.79c-4.55,1.86-4.55,7.24-4.76,11.38c-0.21,4.14,3.93,6,3.93,6s12.82,0,16.55,0 c3.72,0,3.72-2.69,3.72-2.69s-4.96-0.21-4.96-4.55c0-4.34,3.52-4.55,5.17-4.55s3.52,0,5.79,0c2.28,0,3.52,2.9,3.52,2.9 s3.52-5.38,8.07-7.45c4.55-2.07,38.06-25.65,43.85-29.78c5.79-4.14,12.82-13.24,13.03-23.78c0.21-10.55,0.41-38.68,0.41-38.68 S316.25,145.42,296.81,155.55z" fill="#fccfaf"/></g><g id="change4_1"><path d="M87.1,110.12c0,0-5.52-7.72-5.93-16.13s7.86-15.86,9.65-16.96c1.79-1.1,7.45,1.24,6.62,8.27 c-0.83,7.03-2.62,18.89-3.17,20.27c-0.55,1.38,4.27,10.34,5.1,12.82c0.83,2.48,10.07,0.14,18.61,3.03c0,0,17.1-10.2,28.4-10.34 c0,0,6.62,13.93,0.28,22.34s-12.55,10.07-19.03,9.65c-6.48-0.41-18.34-8-23.03-11.31c-4.69-3.31-5.93-6.2-8-10.2 c-2.07-4-5.24-12.69-5.93-13.51C89.99,107.22,87.1,110.12,87.1,110.12z M117.5,92.47c-1.03-2.48-11.17,3.1-9.82,6.1 C108.54,100.51,118.53,94.95,117.5,92.47z M138.39,88.23c-0.1-2.38-10.34-1.34-10.13,0.93C128.42,91.03,138.49,90.61,138.39,88.23z M127.44,175.05c-0.02,0.09-2.3,9.56-2.91,18.2c-0.62,8.61-0.62,29.21-0.62,29.41c0,0.35,0.28,0.63,0.63,0.63 c0.35,0,0.63-0.28,0.63-0.63c0-0.21,0.01-20.76,0.62-29.32c0.61-8.53,2.86-17.9,2.88-17.99c0.08-0.34-0.13-0.67-0.46-0.76 C127.86,174.51,127.52,174.72,127.44,175.05z M112.8,173.97c-0.33-0.09-0.68,0.11-0.77,0.44c-0.06,0.23-6.21,23.44-4.47,47.67 c0.02,0.33,0.3,0.58,0.62,0.58c0.02,0,0.03,0,0.05,0c0.34-0.02,0.6-0.32,0.58-0.67c-1.73-24.01,4.37-47.03,4.43-47.26 C113.33,174.41,113.13,174.06,112.8,173.97z M152.09,159c0.07,0.01,6.84,0.99,12.44,4.46c5.5,3.41,8.57,9.14,12.02,17.9 c3.33,8.46,14.17,47.34,15.27,54.74c1.09,7.39,1.46,14.77-5.93,23.92c-6.74,8.33-36.44,39.31-42.51,45.63l0.85,0.92 c5.94-6.19,35.84-37.36,42.63-45.76c7.72-9.54,7.34-17.22,6.2-24.89c-1.1-7.44-12-46.52-15.34-55.01c-3.54-9-6.73-14.91-12.52-18.5 c-5.84-3.61-12.64-4.6-12.93-4.64c-0.34-0.05-0.66,0.19-0.71,0.53C151.51,158.63,151.75,158.95,152.09,159z M160.57,154.44 c6.76,1.73,17.51,8.06,20.11,15.46c2.73,7.77,15.45,52.43,17.91,62.13c2.85,11.25,1.54,20.91-3.91,28.72 c-4.95,7.11-31.45,33.42-45.25,46.96l10.57-8.67c14.02-13.91,31.71-31.84,35.71-37.57c5.66-8.12,7.04-18.13,4.09-29.74 c-2.46-9.71-15.21-54.45-17.94-62.24c-2.74-7.81-13.95-14.46-20.98-16.26c-0.34-0.09-0.68,0.12-0.76,0.45 C160.03,154.01,160.23,154.35,160.57,154.44z M228.29,396.64h-24.13v-38.33c-2.38,0-4.87,0-7.45,0v38.33h-34.75v-38.33 c-2.48,0-4.97,0-7.45,0v38.33h-20.97l1.77-38.33c-2.54,0-5.02,0-7.45,0l-4.25,91.82l-39.85-0.32c0,0,2.16,5.6-1.8,9.29 c-1,0.93-2.49,1.89-4.27,2.86l-0.19-21.58c-1.95-1.07-4.45-2.84-6.75-5.61l-0.2,30.58c-3.77,1.64-7.59,3.14-10.19,4.33 c-5.81,2.64-4.83,9.06,0.34,9.1c1.43,0.01,6.75,0.05,13.72,0.11c-1.82,0.37-3.19,1.97-3.19,3.9c0,2.2,1.78,3.98,3.98,3.98h49.39 c2.2,0,3.98-1.78,3.98-3.98c0-0.52-0.11-1.01-0.29-1.46c0.83-0.65,1.39-1.62,1.44-2.75l3.44-74.5h95.09c2.06,0,3.72-1.67,3.72-3.72 C232.01,398.3,230.34,396.64,228.29,396.64z M333.36,130.87c-1.65,0.08-3.44,0.29-5.11,0.75c-4.96,1.38-32.26,14.62-32.26,14.62 l0.83,9.31c19.44-10.13,29.37-13.44,29.37-13.44s-0.01,1.43-0.03,3.76c5.46-3.38,10.91-7.23,10.16-8.72 C335.48,135.48,334.49,133.33,333.36,130.87z M257.38,114.81l18.12-32.98c-2.17-1-3.97-1.93-5.26-2.62l0.09,0.23l-16.75,27.09 l-5.55-13.37c-1.35,1.17-2.88,2.5-4.49,3.9l6.11,18.84L257.38,114.81z M217.84,150.2c-0.91,4.38-1.43,6.85-1.43,6.85l17.94,2.84 l-3.45-7.86L217.84,150.2z M398.93,460.79l-9.63-19.25l-24.41,14.07c0.88,3.14,2.16,10.13-2.45,14.11 c-6.07,5.24-11.58,8.55-17.37,11.58c-5.79,3.03-3.58,8,1.38,8c4.96,0,6.07,0,14.34,0c8.27,0,16.82-6.07,23.16-10.2 c3.85-2.51,9.43-6.95,13.22-10.06C399.62,467.03,400.34,463.61,398.93,460.79z M306.01,469.33l-32.92,1.92 c-0.99,2-3.11,4.15-7.44,5.63c-10.48,3.58-20.68,4.96-20.68,9.38s2.21,4.69,7.72,4.69c5.52,0,40.81,0,47.98,0s7.17-8.27,6.62-12.41 C306.99,476.29,306.45,472.41,306.01,469.33z M259.49,239.89c-0.77-0.61-1.74-0.99-2.8-0.99h-5.17c-1.65,0-5.17,0.21-5.17,4.55 c0,4.34,4.96,4.55,4.96,4.55h5.38c2.51,0,4.55-2.04,4.55-4.55c0-0.62-0.13-1.21-0.35-1.75c-0.04,0.06-0.06,0.09-0.06,0.09 S260.36,240.73,259.49,239.89z M213.68,271.09c0.47,0,0.93,0.01,1.38,0.03l3.83-23.12h9.1c-0.55-0.88-0.94-1.97-0.88-3.31 c0.09-1.83,0.14-3.89,0.56-5.79h-19.41c0.54,3.57,0.7,6.58,0.55,9.1h0.85l-3.82,23.09C207.17,271.09,209.51,271.09,213.68,271.09z" fill="#f8f0e3"/></g><g id="change5_1"><path d="M141.36,145.39l3-3c0.24-0.24,0.64-0.24,0.89,0s0.24,0.64,0,0.89l-3,3c-0.12,0.12-0.28,0.18-0.44,0.18 c-0.16,0-0.32-0.06-0.44-0.18C141.11,146.03,141.11,145.63,141.36,145.39z M137.15,142.94c-0.28-0.9-0.36-0.98-0.41-0.97 c-9.24,2.21-16.75-0.9-16.75-0.9c7.06,7.37,16.13,5.82,20.11,4.64C139.02,145.3,137.63,144.48,137.15,142.94z M229.23,238.83 c-0.35,0.01-0.62,0.3-0.6,0.65c0.01,0.32,0.31,7.98,2.64,10.6c0.12,0.14,0.3,0.21,0.47,0.21c0.15,0,0.3-0.05,0.42-0.16 c0.26-0.23,0.28-0.63,0.05-0.88c-1.69-1.9-2.25-7.72-2.33-9.81C229.86,239.08,229.57,238.78,229.23,238.83z M218.46,164.71 l7.17,4.14c0.1,0.06,0.21,0.08,0.31,0.08c0.22,0,0.43-0.11,0.54-0.31c0.17-0.3,0.07-0.68-0.23-0.86l-7.17-4.14 c-0.3-0.17-0.68-0.07-0.85,0.23C218.06,164.16,218.16,164.54,218.46,164.71z M233.69,238.55c-0.35-0.01-0.64,0.25-0.65,0.6 c-0.01,0.28-0.24,6.93,3.48,10.93c0.12,0.13,0.29,0.2,0.46,0.2c0.15,0,0.31-0.06,0.43-0.17c0.25-0.23,0.27-0.63,0.03-0.88 c-3.36-3.62-3.14-9.96-3.14-10.03C234.3,238.86,234.03,238.57,233.69,238.55z M236.37,163.51l-1.12-2c0.17-0.22,0.19-0.52,0.01-0.75 c-6.4-8.53-4.04-32.41-4.02-32.65c0.04-0.34-0.22-0.65-0.56-0.69c-0.34-0.03-0.65,0.21-0.69,0.56c-0.1,0.94-2.15,21.77,3.11,31.71 L223.04,158c-2.53-0.39-3.99-0.58-3.99-0.58l-0.3,1.45l19.02,7.86L236.37,163.51z M204.57,307.98l-0.14-36.26 c-0.69,7.31-5.79,12.41-5.79,12.41C200.99,289.92,204.57,307.98,204.57,307.98z M162.03,207.23c-1.55-3.88-3.95-4.49-4.06-4.51 c-0.33-0.08-0.66,0.12-0.75,0.46c-0.08,0.33,0.12,0.67,0.45,0.76c0.08,0.02,1.9,0.54,3.19,3.76c0.51,1.28,1.72,4.1,3.12,7.37 c2.6,6.08,5.83,13.65,6.7,16.17c0.88,2.59,1.71,5.24,2.12,6.59c0.23,0.75,0.16,1.55-0.2,2.24c-1.04,2.03-3.23,6.12-6.2,10.69 c-4.18,6.42-19.26,26.44-19.42,26.64c-0.21,0.28-0.15,0.67,0.12,0.88c0.11,0.08,0.25,0.13,0.38,0.13c0.19,0,0.38-0.09,0.5-0.25 c0.15-0.2,15.26-20.26,19.47-26.71c3.01-4.62,5.22-8.75,6.27-10.8c0.51-0.99,0.6-2.12,0.28-3.18c-0.42-1.36-1.25-4.02-2.14-6.63 c-0.88-2.57-4.12-10.16-6.73-16.26C163.74,211.32,162.54,208.5,162.03,207.23z M139.06,165.53c0.11,0.23,0.33,0.37,0.57,0.37 c0.09,0,0.18-0.02,0.26-0.06c0.11-0.05,9.66-4.49,17.45-11.72c1.05,0.09,6.8,0.56,12,1.12c0.02,0,0.05,0,0.07,0 c0.32,0,0.59-0.24,0.62-0.56c0.04-0.34-0.21-0.65-0.56-0.69c-4.2-0.45-8.76-0.85-10.93-1.03c0.77-0.77,1.52-1.56,2.23-2.38 c0.23-0.26,0.2-0.66-0.06-0.88c-0.26-0.23-0.66-0.2-0.88,0.06c-7.88,9.09-20.35,14.88-20.47,14.94 C139.05,164.85,138.91,165.22,139.06,165.53z M203.88,259.58l-21.26,21.07l-19.83,15.95C187.82,292.47,203.88,259.58,203.88,259.58z M232.42,66.51c-0.34,0.04-0.59,0.35-0.55,0.69c0.04,0.32,0.31,0.56,0.62,0.56c0.02,0,0.05,0,0.07,0c5.66-0.64,8.42-3.28,8.9-4.9 c0.2-0.68,0.06-1.28-0.39-1.65c-0.45-0.37-1.36-0.61-3.08,0.31c-4.41,2.35-9.29,1.7-9.34,1.69c-0.34-0.05-0.66,0.19-0.71,0.53 c-0.05,0.34,0.19,0.66,0.53,0.71c0.21,0.03,5.32,0.72,10.1-1.83c1.12-0.6,1.62-0.5,1.7-0.44c0.02,0.01,0.04,0.12-0.02,0.32 C239.95,63.56,237.62,65.93,232.42,66.51z M223.18,50.18c0.97,0,1.76-0.79,1.76-1.76c0-0.97-0.79-1.76-1.76-1.76 c-0.97,0-1.76,0.79-1.76,1.76C221.43,49.39,222.21,50.18,223.18,50.18z M135.37,100.91c0.96,0,1.74-0.78,1.74-1.74 c0-0.96-0.78-1.74-1.74-1.74c-0.96,0-1.74,0.78-1.74,1.74C133.63,100.13,134.41,100.91,135.37,100.91z M264.67,45.1L264.67,45.1 c0.34-0.07,0.56-0.39,0.5-0.73c-0.06-0.34-0.41-0.56-0.73-0.5c-1.31,0.25-3.84,1.61-4.03,5.03c-0.02,0.32,0.22,0.61,0.54,0.65 c0.01,0,0.93,0.14,1.41,0.9c0.39,0.62,0.4,1.5,0.05,2.64c-0.1,0.33,0.08,0.68,0.41,0.79c0.06,0.02,0.13,0.03,0.19,0.03 c0.27,0,0.51-0.17,0.6-0.44c0.48-1.51,0.41-2.75-0.19-3.7c-0.48-0.75-1.19-1.12-1.7-1.3C262.12,45.64,264.56,45.12,264.67,45.1z M238.08,17.19c0,0,1.86,7.24,5.79,14.68c3.93,7.45,13.03,12,13.03,12s8.27-5.79,12.62,1.03c1.75-4.07,3.21-8.08,4.05-11.93 c1.33,0.53,2.9,0.82,5.67-0.27c4.76-1.86,5.48-5.38,6.62-7.86c1.14-2.48,5.69-4.55,5.38-9.72c-0.31-5.17-5.07-6.1-6.51-8.07 c-1.45-1.96-1.34-6.1-6.2-6.93c-4.86-0.83-7.76,2.69-9.41,3.62c-1.65,0.93-5.17-0.62-8.58,1.34c-2.68,1.54-3.19,3.96-3.29,4.94 c-10.24-1.97-23.03-1.64-29.7,1.57c-11.17,5.38-8.48,25.85-8.48,25.85L238.08,17.19z M296.81,156.18c0.04,0,0.07,0,0.11-0.01 c0.34-0.06,0.57-0.39,0.51-0.73l-4.96-28.06c-0.06-0.34-0.39-0.57-0.73-0.51c-0.34,0.06-0.57,0.39-0.51,0.73l4.96,28.06 C296.25,155.96,296.51,156.18,296.81,156.18z M240.69,47.97c0-0.97-0.79-1.76-1.76-1.76c-0.97,0-1.76,0.79-1.76,1.76 c0,0.97,0.79,1.76,1.76,1.76C239.91,49.73,240.69,48.94,240.69,47.97z M245.97,39.54c0.2-0.28,0.12-0.67-0.16-0.87 c-8.02-5.53-13.5,0.66-13.55,0.73c-0.23,0.26-0.2,0.66,0.07,0.88c0.12,0.1,0.26,0.15,0.41,0.15c0.18,0,0.35-0.07,0.47-0.22 c0.19-0.22,4.79-5.41,11.89-0.51C245.38,39.89,245.77,39.82,245.97,39.54z M242.76,250.28c0.17,0,0.33-0.07,0.45-0.2 c0.24-0.25,0.23-0.65-0.02-0.88c-4.64-4.38-3.72-9.68-3.68-9.91c0.06-0.34-0.16-0.67-0.5-0.73c-0.33-0.06-0.67,0.16-0.73,0.5 c-0.05,0.25-1.11,6.18,4.04,11.05C242.45,250.23,242.61,250.28,242.76,250.28z M228.32,60.2c0.05,0.01,0.1,0.02,0.14,0.02 c0.28,0,0.54-0.2,0.61-0.48c0.08-0.34-0.13-0.67-0.47-0.75c-2.19-0.51-3.53-1.5-3.89-2.26c-0.16-0.33-0.07-0.51-0.04-0.57 c0.15-0.3,0.26-0.55,0.37-0.81c0.35-0.8,0.66-1.49,2.05-3.34c1.99-2.65,1.59-6.39,1.57-6.55c-0.04-0.34-0.36-0.59-0.69-0.55 c-0.34,0.04-0.59,0.35-0.55,0.69c0,0.03,0.36,3.41-1.33,5.66c-1.47,1.96-1.82,2.75-2.19,3.58c-0.1,0.24-0.21,0.48-0.35,0.75 c-0.26,0.51-0.25,1.09,0.02,1.67C224.18,58.52,225.99,59.65,228.32,60.2z M225.79,41.37c0.25,0.23,0.65,0.22,0.88-0.04 c0.23-0.26,0.22-0.65-0.04-0.88c-1.13-1.04-2.32-1.49-3.51-1.36c-1.95,0.22-3.16,1.94-3.22,2.02c-0.2,0.28-0.13,0.67,0.16,0.87 c0.11,0.08,0.23,0.11,0.36,0.11c0.2,0,0.39-0.09,0.51-0.27c0.01-0.01,0.96-1.34,2.33-1.49C224.09,40.24,224.94,40.59,225.79,41.37z M254,75.72c-1.86,1.24-7.24,4.14-7.24,4.14l0.79,8.42c2.51-3.15,5.6-7.02,6.86-8.63C256.69,76.75,255.86,74.48,254,75.72z M99.64,318.26c0.1,0,0.21-0.03,0.3-0.08c0.08-0.04,7.72-4.26,12.17-5.74c0.33-0.11,0.51-0.46,0.4-0.79 c-0.11-0.33-0.46-0.51-0.79-0.4c-4.55,1.52-12.06,5.66-12.38,5.84c-0.3,0.17-0.41,0.55-0.24,0.85 C99.21,318.14,99.42,318.26,99.64,318.26z M306.01,469.33c0.07,0.46,0.13,0.95,0.2,1.44l-36.04,4.44 c-12.37,9.99-27.26,15.83-43.27,15.83c-27.24,0-51.23-16.91-65.08-42.41c-2.01,3.69-4.23,7.2-6.64,10.51 c1.5,3.27,2.36,7.01,2.36,10.98c0,12.87-8.95,23.3-19.99,23.3c-7.78,0-14.5-5.19-17.81-12.74c-0.25,0.08-0.5,0.15-0.77,0.19 l-5.34,5.9H120c-7.34,2.77-15.15,4.27-23.25,4.27c-8.33,0-16.35-1.6-23.88-4.52c-3.62,4.26-8.63,6.9-14.18,6.9 c-11.04,0-19.99-10.43-19.99-23.3c0-3.03,0.51-5.92,1.42-8.58c-12.98-16.61-20.95-38.91-20.95-63.4c0-19.04,4.82-36.76,13.06-51.51 c0.56,1.98,1.53,4.77,2.82,8.15c-6.1,12.76-9.61,27.56-9.61,43.35c0,21.9,6.74,41.92,17.82,57.19c3.67-5.2,9.23-8.52,15.45-8.52 c8.64,0,15.98,6.4,18.77,15.35c-5.24,2.87-12.77,5.76-17.05,7.74c-0.78,0.36-1.42,0.79-1.96,1.26c-0.61,0.54-1.07,1.13-1.39,1.74 c-0.02,0.05-0.05,0.09-0.08,0.14c-0.08,0.17-0.14,0.33-0.21,0.5c-0.02,0.07-0.05,0.14-0.07,0.2c-0.05,0.16-0.09,0.31-0.12,0.47 c-0.02,0.08-0.03,0.16-0.04,0.23c-0.02,0.15-0.04,0.3-0.04,0.45c0,0.08,0,0.17,0,0.25c0,0.14,0.01,0.28,0.02,0.42 c0.01,0.09,0.03,0.18,0.05,0.27c0.02,0.13,0.04,0.26,0.08,0.38c0.06,0.2,0.13,0.39,0.22,0.58c0.04,0.08,0.09,0.15,0.14,0.23 c0.07,0.12,0.13,0.23,0.21,0.34c0.05,0.07,0.12,0.14,0.18,0.21c0.09,0.1,0.18,0.2,0.28,0.29c0.07,0.06,0.14,0.12,0.22,0.18 c0.11,0.09,0.22,0.17,0.34,0.24c0.08,0.05,0.16,0.1,0.25,0.15c0.13,0.07,0.27,0.13,0.41,0.19c0.09,0.04,0.18,0.07,0.27,0.11 c0.17,0.05,0.34,0.09,0.52,0.13c0.09,0.02,0.17,0.04,0.26,0.06c0.27,0.04,0.56,0.07,0.87,0.07c1.14,0,4.78,0,9.75,0 c-0.15-0.92-0.72-6.4,6.48-9.6l0.7-0.31c7.25-3.22,16.27-7.23,22.12-10.68c4.9-2.89,5.04-7.16,0.47-15.17 c-1.47-0.32-7.7-2.13-11.74-10.21c-4.33-8.66-29.48-71.45-34.77-85.27c-5.11-13.35-5.13-31.32,11.66-38.03 c16.37-6.55,61.07-21.92,61.52-22.07c0.33-0.11,0.68,0.06,0.8,0.39c0.11,0.33-0.06,0.68-0.39,0.79 c-0.45,0.15-45.12,15.51-61.47,22.05c-15.94,6.38-15.86,23.61-10.95,36.42c5.29,13.8,30.4,76.52,34.72,85.15 c4.22,8.44,11.05,9.58,11.12,9.59c0.19,0.03,0.35,0.14,0.45,0.31c3.72,6.45,6.21,13-0.78,17.12c-5.91,3.49-14.97,7.52-22.25,10.75 l-0.7,0.31c-6.85,3.04-5.79,8.1-5.74,8.32c0.01,0.05,0,0.09,0,0.14c1.67,0,3.46,0,5.34,0c-0.02,0.06-0.05,0.12-0.07,0.18 c13.1,0.15,35.09,0.4,41.28,0.48c0.32-0.02,0.62-0.07,0.89-0.15c-1.09-2.88-1.71-6.05-1.71-9.39c0-5.86,1.87-11.2,4.94-15.3 c1.05-25.25,2.69-64.68,2.71-65.25c0.01-0.34,0.34-0.6,0.65-0.6c0.35,0.01,0.61,0.31,0.6,0.65c-0.02,0.56-1.59,38.31-2.64,63.6 c3.58-3.96,8.41-6.4,13.74-6.4c5.45,0,10.38,2.55,13.99,6.67c2.54-3.7,4.83-7.65,6.84-11.82c-5.78-12.99-9.07-27.8-9.07-43.51 c0-51.22,34.81-92.89,77.59-92.89s77.59,41.67,77.59,92.89c0,29.59-11.63,55.98-29.7,73L306.01,469.33z M76.61,486.78 c-0.33-0.67-1.13-1.51-2.13-2.38c-0.41,0.62-0.85,1.22-1.31,1.79c0.6,0.37,1.3,0.59,2.06,0.59H76.61z M297.98,405.06l-66.31-3.81 l53.98,45.95C292.57,435.03,296.97,420.62,297.98,405.06z M283.41,345.37l-52.05,54.61l66.71,3.83c0.1-1.87,0.17-3.75,0.17-5.66 C298.23,378.3,292.69,360,283.41,345.37z M230.43,399.14l52.28-54.85c-12.39-18.9-31.13-31.4-52.28-32.66V399.14z M163.61,358.31 c1.06,0,2.13,0,3.19,0c4.65,11.65,7.32,24.63,7.51,38.33h-1.18l54.9,3.15l-59.76-50.87C166.56,351.92,165,355.05,163.61,358.31z M155.63,395.63l12.39,0.71c-0.2-11.93-2.39-23.27-6.2-33.56C158.09,372.87,155.91,383.96,155.63,395.63z M174.92,457.37l53.66-56.3 l-72.97-4.19c-0.01,0.42-0.03,0.84-0.03,1.27c0,12.6,2.25,24.57,6.25,35.38c3.37-9.1,5.49-19.02,6.07-29.45h6.26 c-0.71,13.51-3.86,26.23-8.9,37.57C167.99,447.33,171.23,452.6,174.92,457.37z M229.18,402.26l-53.48,56.1 c12.97,16.27,31.13,26.42,51.21,26.42c0.76,0,1.51-0.04,2.27-0.07V402.26z M229.18,311.59c-0.76-0.03-1.51-0.07-2.27-0.07 c-22.06,0-41.81,12.23-54.91,31.4h34.92c8.65,0,11.29-8.3,11.4-8.66c0.1-0.33,0.45-0.52,0.78-0.42c0.33,0.1,0.52,0.45,0.42,0.78 c-0.03,0.1-3,9.54-12.59,9.54h-35.74c-0.78,1.19-1.54,2.4-2.27,3.64l60.27,51.3V311.59z M285.01,448.3l-54.58-46.46v82.84 C252.93,483.34,272.71,469.27,285.01,448.3z M108.49,307.86c-0.14-0.32-0.51-0.46-0.83-0.32c-3.72,1.65-11.07,6.19-11.38,6.38 c-0.29,0.18-0.39,0.57-0.2,0.86c0.12,0.19,0.32,0.3,0.53,0.3c0.11,0,0.23-0.03,0.33-0.09c0.08-0.05,7.59-4.69,11.23-6.3 C108.49,308.55,108.63,308.18,108.49,307.86z M3.09,187.41c0.37,0.24,9.08,5.87,16.45,7.43c0.04,0.01,0.09,0.01,0.13,0.01 c0.29,0,0.55-0.2,0.61-0.5c0.07-0.34-0.14-0.67-0.48-0.74c-7.14-1.51-15.94-7.2-16.02-7.25c-0.29-0.19-0.68-0.11-0.87,0.18 C2.72,186.83,2.8,187.22,3.09,187.41z M16.53,197.86c-5.9-1.6-14.57-8.8-14.65-8.87c-0.27-0.22-0.66-0.19-0.88,0.08 c-0.22,0.27-0.19,0.66,0.08,0.88c0.36,0.3,8.97,7.45,15.13,9.12c0.06,0.02,0.11,0.02,0.16,0.02c0.28,0,0.53-0.18,0.6-0.46 C17.06,198.3,16.86,197.95,16.53,197.86z M326.18,142.11l0.21,4.14c0,0,10.55-6.41,10.13-8.48 C336.11,135.7,326.18,142.11,326.18,142.11z M389.3,441.53l-24.41,14.07c0.39,1.41,0.86,3.59,0.85,5.92l23.45-19.11 c0,0,0.09-0.28,0.2-0.71L389.3,441.53z M6.1,184.73c0.35,0.22,8.68,5.46,16.07,6.5c0.03,0,0.06,0.01,0.09,0.01 c0.31,0,0.58-0.23,0.62-0.54c0.05-0.34-0.19-0.66-0.53-0.71c-7.12-1-15.49-6.27-15.57-6.32c-0.29-0.19-0.68-0.1-0.86,0.19 C5.72,184.15,5.81,184.54,6.1,184.73z M285.2,270.85c1.65,4.03,2.45,11.85,3.29,20.12c0.4,3.97,0.82,8.08,1.36,11.99 c0.04,0.31,0.31,0.54,0.62,0.54c0.03,0,0.06,0,0.09-0.01c0.34-0.05,0.58-0.36,0.54-0.7c-0.53-3.89-0.95-7.98-1.35-11.95 c-0.85-8.37-1.66-16.27-3.38-20.47c-2.52-6.15-6.11-8.97-6.26-9.08c-0.28-0.21-0.67-0.16-0.88,0.11c-0.21,0.27-0.16,0.67,0.11,0.88 C279.37,262.31,282.82,265.03,285.2,270.85z M105.71,320.33c0.09,0,0.19-0.02,0.27-0.06c0.06-0.03,5.96-2.9,10.83-4.66 c0.33-0.12,0.49-0.48,0.38-0.8c-0.12-0.32-0.48-0.49-0.8-0.38c-4.94,1.78-10.9,4.69-10.95,4.71c-0.31,0.15-0.44,0.53-0.29,0.84 C105.25,320.2,105.48,320.33,105.71,320.33z M33.34,197.39c0.08,0.28,0.33,0.46,0.6,0.46c0.06,0,0.11-0.01,0.17-0.02 c0.33-0.09,0.53-0.44,0.44-0.77l-2.07-7.55c-0.09-0.33-0.44-0.53-0.77-0.44c-0.33,0.09-0.53,0.44-0.44,0.77L33.34,197.39z M122.25,112.95c0.18,0,0.37-0.08,0.49-0.23c2.56-3.21,3.01-6.79,3.03-6.94c0.04-0.34-0.2-0.65-0.55-0.69 c-0.34-0.04-0.65,0.2-0.7,0.55c0,0.03-0.43,3.39-2.76,6.3c-0.22,0.27-0.17,0.66,0.1,0.88C121.98,112.91,122.12,112.95,122.25,112.95 z M119.03,106.49c0.96,0,1.74-0.78,1.74-1.74c0-0.96-0.78-1.74-1.74-1.74c-0.96,0-1.74,0.78-1.74,1.74 C117.29,105.71,118.07,106.49,119.03,106.49z M124.31,122.26c-0.24,0.56-0.06,1.22,0.49,1.8c0.75,0.78,2.6,1.74,5.51,1.74 c1.76,0,3.91-0.35,6.44-1.3c0.32-0.12,0.49-0.48,0.37-0.81c-0.12-0.32-0.48-0.49-0.81-0.37c-5.62,2.11-9.48,1.04-10.6-0.13 c-0.22-0.23-0.26-0.4-0.24-0.44c0.03-0.06,0.29-0.28,1.14-0.28c4.65,0,9.4-2.45,9.6-2.55c0.31-0.16,0.43-0.54,0.27-0.84 c-0.16-0.31-0.54-0.43-0.84-0.27c-0.05,0.02-4.68,2.41-9.02,2.41C124.99,121.21,124.47,121.87,124.31,122.26z M115.53,245.73 c0.08,0,0.17-0.02,0.25-0.05c0.7-0.3,17.21-7.54,24.88-18.52c0.2-0.28,0.13-0.67-0.16-0.87c-0.28-0.2-0.67-0.13-0.87,0.16 c-7.46,10.69-24.18,18.01-24.35,18.09c-0.32,0.14-0.46,0.51-0.33,0.82C115.06,245.59,115.29,245.73,115.53,245.73z M135.5,108.26 c0.67,0.56,0.99,1.1,0.99,1.66c-0.02,1.24-1.63,2.67-3.04,3.78c-0.27,0.21-0.32,0.61-0.11,0.88c0.12,0.16,0.31,0.24,0.49,0.24 c0.14,0,0.27-0.04,0.39-0.13c1.73-1.36,3.49-2.98,3.52-4.74c0.01-0.95-0.47-1.84-1.44-2.64c-2.44-2.03-6.75-6.14-6.79-6.18 c-0.25-0.24-0.64-0.23-0.89,0.02c-0.24,0.25-0.23,0.65,0.02,0.89C128.69,102.07,133.03,106.2,135.5,108.26z M102.87,242.28 c1.37,2.82,1.41,4.08,1.59,9.41c0.03,0.87,0.06,1.85,0.11,2.96c0.03,0.81,0.05,1.66,0.08,2.54c0.2,7.93,0.46,17.81,8.11,21.87 c0.09,0.05,0.19,0.07,0.29,0.07c0.22,0,0.44-0.12,0.55-0.33c0.16-0.3,0.05-0.68-0.26-0.85c-7.01-3.73-7.25-13.19-7.45-20.8 c-0.02-0.88-0.05-1.74-0.08-2.56c-0.04-1.11-0.08-2.08-0.11-2.95c-0.18-5.4-0.23-6.85-1.71-9.91c-1.62-3.35-15.04-39.19-15.18-39.55 c-0.12-0.32-0.48-0.49-0.81-0.37c-0.32,0.12-0.49,0.48-0.37,0.81C88.2,204.1,101.22,238.88,102.87,242.28z M87.14,253.46 c0.12,0.17,0.32,0.26,0.51,0.26c0.12,0,0.25-0.04,0.36-0.11c0.28-0.2,0.35-0.59,0.15-0.87l-5.65-8c-0.2-0.28-0.59-0.35-0.87-0.15 c-0.28,0.2-0.35,0.59-0.15,0.87L87.14,253.46z M109.74,153.49c0.12,0,0.24-0.03,0.34-0.1c0.29-0.19,0.37-0.58,0.18-0.87 c-1.17-1.81-1.14-2.99-1.14-3.03c0.02-0.34-0.23-0.64-0.58-0.67c-0.35-0.02-0.65,0.23-0.67,0.58c-0.01,0.16-0.08,1.62,1.34,3.8 C109.34,153.39,109.54,153.49,109.74,153.49z M141.08,105.92c0.35,0,0.63-0.28,0.63-0.63c0-0.35-0.28-0.63-0.63-0.63 c-3.88,0-7.26-2.34-7.29-2.37c-0.28-0.2-0.67-0.13-0.87,0.15c-0.2,0.28-0.13,0.67,0.15,0.87 C133.21,103.43,136.79,105.92,141.08,105.92z M109.93,171.7c0.1,0.06,0.21,0.09,0.32,0.09c0.21,0,0.42-0.11,0.54-0.3 c0.18-0.3,0.09-0.68-0.21-0.86c-4.65-2.83-9.88-7.63-9.93-7.68c-0.25-0.23-0.65-0.22-0.88,0.04c-0.23,0.25-0.22,0.65,0.04,0.88 C100.02,164.07,105.18,168.81,109.93,171.7z M333.51,232.74l-12.09,0.37l-4.55-15.72l-2.69,15.51l-12.5,0.31l-31.9,0.37 c-0.35,0-0.62,0.29-0.62,0.63c0,0.34,0.28,0.62,0.63,0.62c0,0,0,0,0.01,0l23.02-0.27l24.75,0.91c-0.14,0.17-0.18,0.41-0.09,0.63 l8.82,20.41c0.1,0.24,0.33,0.38,0.57,0.38c0.08,0,0.17-0.02,0.25-0.05c0.32-0.14,0.46-0.51,0.33-0.82l-8.82-20.41 c-0.02-0.04-0.05-0.06-0.07-0.1l15.87,0.59C334.13,234.97,333.82,233.85,333.51,232.74z" fill="#242430"/></g></svg>