<?xml version="1.0" encoding="UTF-8" standalone="no"?><svg xmlns="http://www.w3.org/2000/svg" xmlns:xlink="http://www.w3.org/1999/xlink" fill="#000000" height="437.7" preserveAspectRatio="xMidYMid meet" version="1" viewBox="-1.0 -0.7 492.3 437.7" width="492.3" zoomAndPan="magnify"><g id="change1_1"><path d="M255.04,124.37c2.1-2.75-1.31-3.8-1.31-3.8c1.57-2.1-0.79-3.27-2.75-2.62c-1.96,0.65-10.87,5.5-11.52,5.76 c-0.65,0.26-5.24-0.26-5.24-0.26s6.81-2.62,8.38-3.14c1.57-0.52,3.4-1.57,3.01-3.27c-0.39-1.7-3.4-0.65-8.51,0.13 c-5.11,0.79-14.93,3.01-18.86,6.55c-3.63,3.27-42.07,33.54-47.94,38.15c-0.09,0.01-0.15,0.02-0.18,0.02 c-0.28,0.03-0.49,0.26-0.52,0.53c-0.03,0.02-0.08,0.06-0.08,0.06c-4.94,0.34-8.26,1.8-9.01,2.15c-0.08-0.02-0.15-0.03-0.23-0.02 l-3.98-5.34c0,0,0,0,0,0c0-0.05,0-0.1,0-0.15c0.01-0.23,0.01-0.46-0.01-0.7c0-0.06-0.01-0.12-0.01-0.18 c-0.01-0.05-0.02-0.11-0.03-0.16c-0.03-0.19-0.06-0.38-0.11-0.57c-0.02-0.09-0.04-0.19-0.07-0.28c-0.08-0.3-0.18-0.6-0.32-0.91 c-0.07-0.16-0.15-0.34-0.24-0.53c-0.03-0.06-0.07-0.14-0.1-0.2c-0.07-0.13-0.13-0.27-0.21-0.41c-0.04-0.09-0.09-0.18-0.14-0.27 c-0.07-0.14-0.15-0.28-0.23-0.44c-0.05-0.1-0.11-0.2-0.17-0.31c-0.08-0.15-0.17-0.3-0.26-0.46c-0.07-0.12-0.13-0.24-0.2-0.36 c-0.09-0.16-0.19-0.33-0.29-0.5c-0.07-0.12-0.14-0.24-0.21-0.36c-0.11-0.19-0.23-0.39-0.35-0.59c-0.07-0.12-0.14-0.23-0.21-0.35 c-0.14-0.24-0.3-0.49-0.45-0.74c-5.45-9.03-16.14-24.93-21.3-34.02c-6.55-11.52-13.36-16.5-25.4-23.31 c-0.02-0.01-0.03-0.02-0.05-0.03l0.03-0.07c-1.76-1-3.25-1.84-4.53-2.57c-0.29-0.44-2.44-3.93-1.34-7.41 c0.13-0.41,0.26-0.81,0.4-1.2c0.14-0.4,0.28-0.78,0.42-1.15c0,0,0-0.01,0.01-0.01c0.7-1.86,1.38-3.36,1.72-4.07 c0,0,0-0.01,0.01-0.01c0.06-0.14,0.12-0.24,0.15-0.32c0,0,0-0.01,0.01-0.01c0.03-0.06,0.05-0.1,0.05-0.1 c8.64,1.77,16.3-0.79,21.02-7.66c4.71-6.87,4.12-11.59,4.32-19.84c0.2-8.25,0.79-20.23-3.73-28.87c-1.72-3.29-4.78-5.83-8.71-7.63 c-4.8-2.52-13.84-6.21-23.7-4.74c-2.62,0.39-5.2,1.15-7.62,2.22c-0.25-1.63-1.41-3.62-5.34-4.58c0,0-0.98-4.52-5.3-5.3 c-4.32-0.79-5.5,3.34-5.5,3.34s-4.71-2.95-7.66-0.79c-2.95,2.16-1.37,6.48-1.37,6.48s-4.12,2.36-3.73,6.68 c0.39,4.32,3.93,5.5,3.93,5.5s-1.38,4.71,1.77,6.87c3.14,2.16,5.3,0.79,5.3,0.79s0.34,3.48,3.15,4.04c0.07,0.99,0.19,2,0.39,3.03 c2.65,13.97,9.6,26.18,10.96,28.48c0.15,0.26,0.24,0.39,0.24,0.39l-6.8,17.37c-0.99,0.34-2.45,0.85-4.22,1.5l0.07,0.1 c-5.67,2.08-14.54,5.62-21.14,9.58c-10.48,6.29-22.26,23.05-26.45,49.76c-4.19,26.71-8.38,43.21-14.67,65.47 c-3.67,13-6.71,21.53-6.31,27.79c-0.07,0.11-0.17,0.23-0.23,0.33c-0.08,0.15-0.1,0.31-0.05,0.46c-0.03,0.03-0.06,0.06-0.09,0.09 c-0.53,3.19,1.4,5.67,3.43,7.34c-1.7,1.74-3.73,4.44-4.48,7.98c-1.37,6.48,1.57,16.89,5.3,28.09c3.73,11.2,22.98,17.48,22.98,17.48 L5.61,416.47c-0.2,1.02,0.43,2.01,1.44,2.26l0.32,0.08c1.02,0.25,2.05-0.34,2.34-1.35l34.25-118.8h3.73l-0.01,4.39l-0.37,113.67 c0,1.08,0.87,1.95,1.94,1.95c1.01,0,1.85-0.77,1.94-1.77l9.26-105.82l0.05,0.03l1.05-12.45h-0.01l0.01-0.1l34.68-0.31l7.32,118.71 c0.07,1.13,1.04,1.98,2.17,1.91c1.06-0.07,1.89-0.95,1.9-2.02l0.76-118.7l8.38-0.07c-0.72,8.95-1.55,20.05-1.55,24.03 c0,0.34,0.1,0.65,0.25,0.94c0,0,0,0,0,0c0.47,0.94,1.64,1.68,3.3,2.26c0.01,0,0.02,0.01,0.02,0.01c0.39,0.14,0.81,0.27,1.25,0.39 c0.04,0.01,0.08,0.02,0.12,0.03c0.44,0.12,0.89,0.23,1.37,0.33c0.03,0.01,0.05,0.01,0.08,0.02c1.03,0.22,2.14,0.4,3.32,0.55 c0,0,0,0,0,0c0.04,0,0.08,0.01,0.11,0.01c-0.42,9.69-1.22,27.9-1.5,33.3c-0.23,4.34,0.15,7.28,1.43,9.06 c0.02,0.02,0.03,0.04,0.05,0.07c0.16,0.22,0.34,0.42,0.53,0.6c0.03,0.03,0.05,0.05,0.08,0.08c0.42,0.38,0.9,0.68,1.46,0.91 c0.07,0.03,0.14,0.05,0.21,0.08c0.22,0.08,0.45,0.14,0.68,0.2c0.08,0.02,0.17,0.04,0.26,0.06c0.32,0.06,0.65,0.12,1,0.14 c1.87,0.16,7.84,0.19,15.32,0.15l-1.84,15.5l5.37-0.11c0,0.01-0.01,0.05-0.02,0.12c-0.03,0.22-0.09,0.71-0.18,1.42 c-0.38,2.98-1.22,9.79-1.96,16.7c-0.98,9.23-0.39,12.57,3.73,12.57s43.02,0,52.84,0c9.82,0,7.86-11,0-12.37 c-7.86-1.37-12.57-2.36-22.39-3.93c-6.04-0.97-7.1-6.46-7.02-10.55c0.04-2.24,0.42-4.06,0.52-4.48c0,0,0-0.01,0-0.01 c0-0.01,0-0.01,0-0.01l6.56-0.14c0,0,1.17-6.26,2.9-15.54c0.21-0.04,0.41-0.08,0.61-0.12c0.13-0.03,0.27-0.06,0.4-0.09 c0.23-0.05,0.44-0.11,0.65-0.18c0.11-0.03,0.22-0.06,0.33-0.1c0.3-0.1,0.59-0.2,0.86-0.31c0.09-0.04,0.16-0.08,0.25-0.11 c0.19-0.08,0.37-0.17,0.55-0.26c0.12-0.06,0.23-0.12,0.34-0.19c0.13-0.07,0.26-0.15,0.38-0.22c0.11-0.07,0.23-0.15,0.33-0.22 c0.1-0.07,0.2-0.15,0.3-0.22c0.11-0.08,0.22-0.17,0.32-0.25c0.08-0.07,0.15-0.14,0.23-0.21c0.4-0.37,0.74-0.77,1.03-1.18 c0.03-0.04,0.06-0.08,0.09-0.12c0.09-0.14,0.17-0.27,0.25-0.41c0.03-0.05,0.05-0.1,0.08-0.15c0.07-0.14,0.14-0.29,0.21-0.43 c0.02-0.04,0.03-0.08,0.05-0.12c0.07-0.16,0.13-0.32,0.18-0.48c0,0,0,0,0,0c1.33-4.02-1.15-8.87-4.57-9.92 c4.27-22.83,9.61-51.45,11.26-60.3c2.88-15.45-1.57-35.09-22.26-41.38c0,0,3.93-20.95,6.55-36.93c2.42-14.76-5.44-27.27-16.36-31.99 c4.75,0.07,7.43,1.11,10.6,0.82c4.32-0.39,14.27-1.31,17.29-1.44c3.01-0.13,6.29-0.92,6.94-2.23c0.65-1.31,0.13-2.1,0.13-2.1 s1.96-0.92,2.1-2.1c0.08-0.75-0.1-1.34-0.24-1.67c0-0.01,0-0.02-0.01-0.02c0-0.01-0.01-0.01-0.01-0.02 c-0.07-0.16-0.13-0.25-0.13-0.25s1.31-1.05,1.31-2.49c0-1.44-1.31-2.23-1.31-2.23c2.49-2.36-0.39-3.93-0.39-3.93 s14.27-13.09,16.37-15.32c2.1-2.23,5.11-6.42,7.59-7.2c2.49-0.79,13.88,0,17.28-1.7c3.4-1.7,10.34-8.25,12.57-9.95 c2.23-1.7,0.65-4.45,0.65-4.45C257.52,126.07,255.04,124.37,255.04,124.37z M112.83,160.77c0,0,0.01,0.02,0.03,0.06 c0.02,0.05,0.06,0.12,0.12,0.22c0.04,0.08,0.09,0.18,0.15,0.29c0.13,0.25,0.3,0.57,0.51,0.96c1.1,2.08,3.15,5.91,5,9.28 c-4.21,0.48-8.75,1-12.2,1.37L112.83,160.77z M491,277.05c-0.39,19.77-11.12,31.53-32.96,31.62l14.37,107.43 c0.18,1.32-0.73,2.55-2.05,2.77c-1.31,0.22-2.56-0.64-2.83-1.94l-22.18-108.25c-9.09,0-20.43,0-31.68,0l-4.14,108.98 c-0.05,1.33-1.15,2.39-2.49,2.38c-1.33-0.01-2.42-1.07-2.46-2.4l-3.39-108.96c-18.44,0-34.08,0-35.42,0 c-0.83,20.01-2.23,53.04-3.02,69.08c-0.13,2.58-0.24,4.71-0.33,6.28c0,0,0,0,0,0c-0.04,0.63-0.07,1.19-0.1,1.63 c-0.79,11.79,0.39,13.16,1.18,22.39c0.79,9.23-2.95,11.2-7.66,13.36c-4.71,2.16-21.02,8.45-33,11.98 c-11.98,3.54-13.75-6.09-8.64-10.21c5.11-4.12,7.07-6.29,7.07-6.29h-38.28c-0.84,0-1.54-0.64-1.6-1.48 c-0.17-2.37,0.15-6.91,4.71-8.34c6.29-1.96,11-4.71,18.27-9.43c5.82-3.78,7.86-8.82,6.72-16.33c-0.01-0.07-0.02-0.13-0.03-0.19 c-0.27-1.68-0.68-3.49-1.26-5.43c-0.04-0.15-0.08-0.29-0.13-0.44c-3.34-11-20.62-69.34-25.34-87.41 c-4.71-18.07,3.54-32.41,12.77-37.32c9.23-4.91,25.34-13.36,25.34-13.36s10.61-4.52,23.18-10.61c3.31-1.6,6.07-2.91,8.37-3.98 l-17.9,7.78c0.31-0.23,0.61-0.47,0.91-0.72c-1.68,1.4-3.52,2.46-5.52,3.01c-12.96,3.54-26.71,1.96-29.86-14.93 c-1.26-6.75-3.26-18.95-5.22-31.18c0-0.02-0.01-0.04-0.01-0.06c-2.94-18.35-5.77-36.72-5.77-36.72s0-1.77-1.18-2.36 c-1.18-0.59-4.91-1.57-10.21-2.16c-5.3-0.59-10.61-2.95-13.55-6.87c-2.95-3.93-2.95-4.71-2.36-6.48c0.59-1.77,4.52-3.54,4.52-3.54 c1.18-1.96,3.14-0.59,6.87,2.36c3.73,2.95,7.14,3.93,9.49,4.12c2.36,0.2,6.61,0.79,6.61,0.79s-6.68-3.14-8.25-4.32 c-1.57-1.18-1.57-4.32,1.96-3.34c3.54,0.98,12.77,3.54,19.05,7.07c6.29,3.54,7.86,10.8,7.86,10.8l11.22,29.71 c0.04-1.1,0.17-4.47,0.57-14.78c0.59-15.32,6.29-32.8,15.12-41.05c7-6.53,16.7-14.41,20.44-17.41c0.01-2.43-0.11-5.18-0.49-7.99 c-0.11-0.85-0.25-1.7-0.42-2.55c-0.01-0.03-0.01-0.06-0.02-0.1c-0.17-0.85-0.36-1.69-0.58-2.53c0,0-0.05-0.01-0.14-0.04 c-0.02-0.01-0.06-0.02-0.09-0.02c-0.38-0.1-1.23-0.33-2.36-0.61c0,0,0,0,0,0c-0.64-0.16-1.36-0.34-2.14-0.54 c-8.96,3.18-24.01,0.56-24.01,0.56c2.36-4.73,3.94-12.79,4.72-17.61c-0.42-2.71-0.61-5.8-0.46-9.36c0,0-4.19-1.57-4.58-7.59 c-0.39-6.02,4.32-8.12,4.32-8.12s-0.19-7.75,0.85-15.2c-1.29,0.34-2.09,0.53-2.09,0.53s-1.77-14.34,8.84-18.86s16.5-3.73,28.68-2.55 c12.18,1.18,24.36,10.21,27.3,25.73c2.95,15.52,6.29,43.21-2.55,47.34c-4.73,2.21-10.01,2.78-13.91,2.84c0.41,0.83,1,1.93,1.86,3.38 c2.88,4.85,5.76,6.15,5.76,6.15l0.04,0.2c4.59,0.84,13.96,1.62,26.87,1.96c14.93,0.39,24.75,4.32,33.78,19.64 c9.04,15.32,24.16,45.18,31.43,64.82c7.27,19.64,6.09,35.16,6.29,47.34c0.02,0.93-0.06,1.77-0.19,2.55c1.84,0.23,3.28,1.7,3.46,3.55 C489.68,242.6,491.31,261.46,491,277.05z" fill="#2d622b"/></g><g id="change2_1"><path d="M56.78,285.43c42.16,0,61.02,0,61.02,0s-0.5,5.67-1.07,12.64l-8.38,0.07l-0.76,118.7 c-0.01,1.07-0.84,1.95-1.9,2.02c-1.13,0.08-2.1-0.78-2.17-1.91l-7.32-118.71l-34.68,0.31L51.18,416.9c-0.09,1-0.93,1.77-1.94,1.77 c-1.08,0-1.95-0.87-1.94-1.95l0.39-118.06h-3.73L9.7,417.46c-0.29,1.01-1.32,1.6-2.34,1.35l-0.32-0.08c-1-0.25-1.63-1.24-1.44-2.26 l23.02-118.2c0,0-19.25-6.29-22.98-17.48c-3.73-11.2-6.68-21.61-5.3-28.09c0.8-3.79,3.08-6.63,4.84-8.35c0.98,1,2.19,1.94,3.67,2.85 c0,0,0.13,0.84,0.47,2.24c7.75,3.07,29.58,13.24,46.67,35.98C56.27,285.41,56.52,285.43,56.78,285.43z M362.35,385.67 c0.1-1.55,0.25-4.3,0.43-7.91l-28.12,1.96l-0.26-5.24l-24.56,1.23c3.17,10.73,1.74,17.3-5.43,21.95 c-7.27,4.71-11.98,7.46-18.27,9.43c-4.57,1.43-4.88,5.97-4.71,8.34c0.06,0.84,0.76,1.48,1.6,1.48h38.28c0,0-1.96,2.16-7.07,6.29 c-5.11,4.12-3.34,13.75,8.64,10.21c11.98-3.54,28.28-9.82,33-11.98c4.71-2.16,8.45-4.12,7.66-13.36 C362.74,398.83,361.56,397.46,362.35,385.67z M479.41,181.79c-7.27-19.64-22.39-49.5-31.43-64.82 c-9.04-15.32-18.86-19.25-33.78-19.64c-14.93-0.39-25.14-1.37-28.68-2.36c0,0,1.77,3.93,11,37.52 c9.23,33.59,35.16,49.11,53.23,53.82s22.59,53.82,22.59,53.82s13.55,1.18,13.36-11C485.5,216.95,486.68,201.43,479.41,181.79z M347.42,171.77c7.66-16.3,10.21-55.52,10.8-60.76c0.59-5.24,2.16-9.95,2.16-9.95s-13.16,10.41-22,18.66 c-8.84,8.25-14.54,25.73-15.12,41.05c-0.59,15.32-0.59,15.32-0.59,15.32l7.07,18.07C329.74,194.16,339.76,188.07,347.42,171.77z M350.76,203.98c0,0-4.79,19.17-14.64,26.38l27.22-11.82C352.23,218.31,350.76,203.98,350.76,203.98z" fill="#fa9082"/></g><g id="change3_1"><path d="M73.22,42.33c-2.95-14.54,3.93-30.84,18.46-32.61c14.54-1.77,28.28,1.77,32.8,10.41 c4.52,8.64,3.93,20.62,3.73,28.87c-0.2,8.25,0.39,12.96-4.32,19.84c-4.71,6.87-12.37,9.43-21.02,7.66c0,0-1.57,3.14-2.75,6.87 c-1.18,3.73,1.37,7.46,1.37,7.46l-7.01,18.73L74.2,82.99l7.07-18.07C81.27,64.92,76.16,56.87,73.22,42.33z M255.04,124.37 c2.1-2.75-1.31-3.8-1.31-3.8c1.57-2.1-0.79-3.27-2.75-2.62c-1.96,0.65-10.87,5.5-11.52,5.76c-0.65,0.26-5.24-0.26-5.24-0.26 s6.81-2.62,8.38-3.14c1.57-0.52,3.4-1.57,3.01-3.27c-0.39-1.7-3.4-0.65-8.51,0.13c-5.11,0.79-14.93,3.01-18.86,6.55 c-3.93,3.54-48.71,38.76-48.71,38.76c-5.63,0.39-9.17,2.23-9.17,2.23l-5.76-7.73c-6.15,1.57-24.09,13.23-24.09,13.23 s-27.63,3.27-29.59,3.27c-1.96,0-7.07-0.65-7.86-1.44c-0.79-0.79-8.25-11.39-8.25-11.39c-12.7,1.7-31.82,15.06-31.82,15.06 s6.42,8.77,14.67,18.59c8.25,9.82,17.55,7.73,31.69,4.98c14.14-2.75,50.55-12.96,59.58-14.27c9.04-1.31,12.44,0.79,16.76,0.39 c4.32-0.39,14.27-1.31,17.29-1.44c3.01-0.13,6.29-0.92,6.94-2.23c0.65-1.31,0.13-2.1,0.13-2.1s1.96-0.92,2.1-2.1 c0.13-1.18-0.39-1.96-0.39-1.96s1.31-1.05,1.31-2.49c0-1.44-1.31-2.23-1.31-2.23c2.49-2.36-0.39-3.93-0.39-3.93 s14.27-13.09,16.37-15.32c2.1-2.23,5.11-6.42,7.59-7.2c2.49-0.79,13.88,0,17.28-1.7c3.4-1.7,10.34-8.25,12.57-9.95 c2.23-1.7,0.65-4.45,0.65-4.45C257.52,126.07,255.04,124.37,255.04,124.37z M290.65,149.77l20.82-3.93c0,0-1.57-7.27-7.86-10.8 c-6.29-3.54-15.52-6.09-19.05-7.07c-3.54-0.98-3.54,2.16-1.96,3.34c1.57,1.18,8.25,4.32,8.25,4.32s-4.26-0.59-6.61-0.79 c-2.36-0.2-5.76-1.18-9.49-4.12c-3.73-2.95-5.7-4.32-6.87-2.36c0,0-3.93,1.77-4.52,3.54c-0.59,1.77-0.59,2.55,2.36,6.48 c2.95,3.93,8.25,6.29,13.55,6.87c5.3,0.59,9.04,1.57,10.21,2.16C290.65,148,290.65,149.77,290.65,149.77z M332.82,61.51 c-0.65,16.5,5.5,23.57,10.87,24.49c5.37,0.92,13.62,3.14,13.62,3.14c2.75,10.21,0.92,21.87,0.92,21.87 c19.25,4.06,31.17-5.37,31.17-5.37l-2.1-10.48c0,0-2.88-1.31-5.76-6.15c-2.88-4.85-2.75-5.76-2.75-5.76l5.11-9.82l7.2-16.89 c0,0,0-19.12-3.14-29.33c-3.14-10.21-11.52-15.19-24.09-17.55c-12.57-2.36-21.34,3.01-26.58,9.17c-5.24,6.15-4.71,26.98-4.71,26.98 s-4.71,2.1-4.32,8.12C328.63,59.94,332.82,61.51,332.82,61.51z M393.19,192.2c-3.93-1.18-8.05-4.52-10.61-5.11 c-2.55-0.59-3.73,0.79-2.55,1.96c1.18,1.18,6.48,4.32,6.48,4.32s-13.75-2.75-16.11-2.95c-2.36-0.2-3.14,1.37-2.75,2.16 c0.39,0.79,12.18,3.73,12.18,3.73s-11-0.79-12.57-0.79c-1.57,0-2.16,2.16-0.79,2.75c1.37,0.59,13.95,3.93,13.95,3.93 s-12.18-0.79-13.36-0.98c-1.18-0.2-2.36,1.96-0.59,2.55c1.77,0.59,13.55,3.54,13.55,3.54s-11.59-0.2-12.57-0.39 c-0.98-0.2-1.37,2.55,0.2,2.55c1.57,0,17.09,3.34,21.41,4.32c4.32,0.98,12.57-0.39,12.57-0.39l0.39-19.05 C402.02,194.36,397.11,193.38,393.19,192.2z M351.68,244.84l-9.95,6.09c0,0-5.3-11.59-19.25-13.75c0,0-16.11,8.45-25.34,13.36 c-9.23,4.91-17.48,19.25-12.77,37.32c4.71,18.07,22,76.41,25.34,87.41c0.05,0.15,0.08,0.29,0.13,0.44l24.56-1.23l0.26,5.24 l28.12-1.96c1.18-23.91,3.7-85.58,3.7-85.58h27.89C394.36,292.18,389.19,254.86,351.68,244.84z" fill="#ae7041"/></g><g id="change4_1"><path d="M88.73,160.38c0.22,0.65-0.15,2-1.45,3.76c-1.39-1.95-2.48-3.5-2.48-3.5c-12.7,1.7-31.82,15.06-31.82,15.06 s1.3,1.78,3.47,4.62c-7.28,2.15-11.53,2.58-11.92,2.06c-0.59-0.79-5.11-7.27-5.11-7.27s9.43-9.62,21.61-14.93 c12.18-5.3,22.98-7.66,22.98-7.66S88.14,158.61,88.73,160.38z M154.6,156.97l1.71,2.29c0.08-0.93-0.09-1.91-0.53-2.95 c-0.52-1.21-1.66-3.23-3.21-5.78c-19.74,5.76-31.95,19.14-33.59,21.01c6.17-0.71,11.52-1.35,11.52-1.35S148.45,158.55,154.6,156.97z M101.5,90.85l-7.01,18.73L74.2,82.99l0.27-0.7c-0.99,0.34-2.45,0.85-4.22,1.5l22.21,32.39h5.5L106,93.37 c-1.76-1-3.25-1.84-4.53-2.57C101.49,90.83,101.5,90.85,101.5,90.85z M185.37,355.03c-6.29-1.18-19.25-3.54-25.93-5.5 c-6.68-1.96-9.23-5.5-9.04-10.41c0.2-4.91,1.77-18.46,1.77-18.46c-18.27-4.12-26.91-0.2-26.91-0.2s-1.38,32.02-1.77,39.48 c-0.39,7.46,0.98,10.8,5.7,11.2c4.71,0.39,35.55,0,50.87-0.39C195.39,370.35,191.66,356.21,185.37,355.03z M202.46,405.12 c-7.86-1.37-12.57-2.36-22.39-3.93c-9.82-1.57-6.48-15.12-6.48-15.12l-25.53,0.59c0,0-1.18,9.04-2.16,18.27 c-0.98,9.23-0.39,12.57,3.73,12.57s43.02,0,52.84,0C212.28,417.49,210.32,406.49,202.46,405.12z M331.31,31.13 c0,0-1.77-14.34,8.84-18.86s16.5-3.73,28.68-2.55c12.18,1.18,24.36,10.21,27.3,25.73c2.95,15.52,6.29,43.21-2.55,47.34 c-8.84,4.12-19.64,2.55-19.64,2.55l1.77-6.09c0,0-2.75,5.11-5.7,5.5c-2.95,0.39-4.91-2.16-4.91-2.16 c8.05-15.52,7.86-41.25,7.86-41.25s-8.45-4.12-10.61-10.02c-2.16-5.89-2.16-12.37-2.16-12.37s-3.34,3.14-10.41,6.29 C342.71,28.38,331.31,31.13,331.31,31.13z M378.06,44.49l0.31,15.52c0,0,5.86-0.39,6.16-8.45 C384.84,43.51,378.06,44.49,378.06,44.49z M352.58,87.93c-2.75-0.67-6.18-1.47-8.89-1.93c-4.21-0.72-8.89-5.25-10.4-15.13 c-0.78,4.83-2.36,12.89-4.72,17.61C328.56,88.49,343.62,91.11,352.58,87.93z M364.02,41.15c0.29-0.39-2.75-3.73-6.68-4.12 c-3.93-0.39-7.76,0.1-7.86,0.79c-0.2,1.36-0.29,1.47,1.08,1.57c1.38,0.1,2.55,0.1,5.7,0.39C359.4,40.07,363.72,41.54,364.02,41.15z M337.01,38.5c-2.16,0.59-3.73,1.57-3.54,2.75c0.1,0.62,0.98-0.1,4.42-0.69c3.44-0.59,5.79-0.1,6.09-0.69 c0.29-0.59,0.39-2.16-0.29-2.26S339.17,37.91,337.01,38.5z M473.13,252.89c0.79,18.27-25.34,39.09-45.18,39.09 c-15.52,0-28.64,0-33.61,0c-0.34-2.76-6.66-37.79-42.67-47.4l-9.95,6.35c0,0-5.3-11.59-19.25-13.75c0,0,10.61-4.52,23.18-10.61 s17.48-8.05,17.48-8.05s9.62-0.98,43.02-3.93c7.97,0.84,15.68,1.52,22.82,2.06c-0.16-0.01-0.33-0.03-0.5-0.04 c-1.42-4.18-0.01-10.04,4.97-12.82c2.95-1.65,7.05-1.58,10.2,0.17c2.68,1.49,4.23,3.93,4.36,6.85c0.12,2.71-0.56,5.08-1.43,6.99 c13.33,0.74,22.03,0.91,22.03,0.91S472.34,234.63,473.13,252.89z M430.68,216.78c2.61,0.19,5.15,0.37,7.57,0.52 c0.52-0.41,0.98-0.91,1.32-1.56c0.39-0.75,0.45-1.41,0.18-2.03c-0.66-1.55-3.18-2.59-4.09-2.86c-0.52-0.15-0.82-0.7-0.67-1.22 c0.15-0.52,0.69-0.82,1.21-0.67c0.43,0.12,4.2,1.29,5.34,3.97c0.5,1.16,0.41,2.44-0.24,3.71c-0.15,0.29-0.34,0.56-0.53,0.82 c1.25,0.08,2.46,0.15,3.65,0.22c0.92-1.78,1.72-4.11,1.6-6.78c-0.1-2.22-1.29-4.08-3.36-5.23c-2.54-1.41-5.94-1.48-8.29-0.18 c-4.28,2.39-5.35,7.55-3.89,10.96C430.56,216.57,430.62,216.67,430.68,216.78z M376.87,131.64c0.4-0.36,0.43-0.98,0.07-1.39 c-0.36-0.4-0.98-0.43-1.38-0.07c-0.21,0.19-5.19,4.75-5.19,11.59c0,2.93,1.44,5.43,4.05,7.05c1.73,1.07,3.79,1.62,5.81,1.62 c1.54,0,3.06-0.32,4.37-0.98c5.36-2.68,6.94-8.95,5.34-13.22c-0.76-2.02-2.74-3.36-5.31-3.57c-3.05-0.25-5.92,1.16-7.32,3.58 c-0.71,1.24-0.85,2.51-0.41,3.7c1.02,2.73,4.74,4.06,5.16,4.21c0.51,0.18,1.07-0.1,1.25-0.61c0.17-0.51-0.1-1.07-0.61-1.25 c-0.9-0.31-3.36-1.45-3.95-3.04c-0.24-0.63-0.15-1.3,0.27-2.03c1.24-2.15,3.73-2.75,5.46-2.61c1.79,0.15,3.15,1.01,3.63,2.3 c1.3,3.48,0,8.58-4.38,10.77c-2.4,1.2-5.8,0.97-8.27-0.55c-2.01-1.24-3.12-3.15-3.12-5.38 C372.33,135.83,376.82,131.69,376.87,131.64z M310.97,189.47c-0.76-2.02-2.74-3.36-5.31-3.57c-3.05-0.25-5.92,1.16-7.32,3.58 c-0.71,1.24-0.85,2.51-0.41,3.7c1.02,2.73,4.74,4.06,5.16,4.21c0.51,0.18,1.07-0.1,1.25-0.61c0.17-0.51-0.1-1.07-0.61-1.25 c-0.9-0.31-3.36-1.45-3.95-3.04c-0.24-0.63-0.15-1.3,0.27-2.03c1.24-2.15,3.73-2.75,5.46-2.61c1.79,0.15,3.15,1.01,3.63,2.3 c1.3,3.47,0,8.58-4.38,10.77c-1.7,0.85-3.9,0.97-5.91,0.43c0.12,0.71,0.23,1.4,0.35,2.08c0.69,0.13,1.38,0.22,2.07,0.22 c1.54,0,3.06-0.32,4.37-0.98C310.99,200.01,312.57,193.74,310.97,189.47z M297.91,184.87c0.4-0.36,0.43-0.98,0.07-1.39 c-0.36-0.4-0.98-0.44-1.38-0.07c-0.04,0.04-0.25,0.23-0.57,0.57c0.14,0.86,0.27,1.71,0.41,2.57 C297.24,185.49,297.89,184.89,297.91,184.87z M396.3,181.48c0.85,1.99,2.89,3.23,5.47,3.32c3.08,0.12,5.86-1.42,7.15-3.91 c0.66-1.27,0.74-2.55,0.24-3.71c-1.15-2.68-4.92-3.84-5.34-3.97c-0.52-0.15-1.06,0.15-1.21,0.67c-0.15,0.52,0.15,1.07,0.67,1.22 c0.91,0.27,3.43,1.31,4.09,2.86c0.26,0.62,0.21,1.29-0.18,2.03c-1.14,2.21-3.58,2.92-5.34,2.85c-1.79-0.07-3.19-0.86-3.73-2.13 c-1.46-3.41-0.39-8.57,3.89-10.96c2.34-1.31,5.75-1.24,8.28,0.17c2.06,1.15,3.26,3.01,3.36,5.23c0.27,5.94-4.03,10.28-4.07,10.33 c-0.38,0.38-0.39,1-0.01,1.39c0.19,0.19,0.44,0.29,0.7,0.29c0.25,0,0.5-0.09,0.69-0.28c0.2-0.2,4.97-4.98,4.65-11.81 c-0.13-2.93-1.68-5.36-4.37-6.86c-3.14-1.75-7.24-1.82-10.2-0.17C395.8,170.96,394.5,177.29,396.3,181.48z M361.29,185.43 c-5.79,1.37-10.86-2.04-10.91-2.07c-0.45-0.31-1.06-0.19-1.36,0.25c-0.31,0.45-0.2,1.06,0.25,1.36c0.19,0.13,4.05,2.75,9.15,2.75 c1.06,0,2.17-0.11,3.32-0.39c2.85-0.68,4.95-2.65,5.92-5.57c1.13-3.42,0.44-7.46-1.73-10.05c-3.85-4.59-10.31-4.69-14.09-2.14 c-1.79,1.21-2.63,3.44-2.24,5.99c0.46,3.02,2.49,5.49,5.18,6.29c1.37,0.41,2.64,0.25,3.69-0.46c2.42-1.63,2.86-5.55,2.9-5.99 c0.05-0.54-0.34-1.02-0.88-1.07c-0.55-0.05-1.02,0.34-1.07,0.88c-0.09,0.95-0.64,3.61-2.04,4.55c-0.56,0.38-1.22,0.44-2.03,0.2 c-2.38-0.71-3.54-2.98-3.8-4.71c-0.27-1.77,0.25-3.29,1.4-4.06c3.08-2.07,8.35-1.98,11.49,1.77c1.72,2.06,2.29,5.42,1.37,8.17 C365.05,183.4,363.45,184.92,361.29,185.43z M334.65,379.72l-23.57,1.41c0.13,0.84,0.53,2.4,0.59,3.18l23.77-0.92L334.65,379.72z M336.22,389.01l26.06-2.23c0.02-0.37,0.04-0.72,0.07-1.11c0.03-0.44,0.06-1,0.1-1.63l-27.01,2.22L336.22,389.01z" fill="#fbf3e7"/></g><g id="change5_1"><path d="M169.59,162.54c-0.03-0.33,0.2-0.62,0.53-0.65c0.51-0.05,12.63-1.31,16.15-1.44 c2.19-0.08,3.43,0.22,4.02,0.97c0.59,0.74,0.33,1.7,0.24,2.01c-0.39,1.44-1.91,1.9-3.67,2.44c-0.46,0.14-0.93,0.28-1.42,0.46 c-0.37,0.13-0.77,0.26-1.2,0.39l16.3-0.5c0.3,0,0.6,0.25,0.61,0.58c0.01,0.33-0.25,0.6-0.58,0.61l-21.34,0.65c-0.01,0-0.01,0-0.02,0 c-0.3,0-0.55-0.22-0.59-0.52c-0.04-0.3,0.15-0.59,0.45-0.66c0.04-0.01,3.79-0.92,5.96-1.69c0.5-0.18,1-0.33,1.47-0.47 c1.64-0.5,2.66-0.85,2.87-1.61c0.17-0.62,0.07-0.84-0.02-0.96c-0.18-0.23-0.82-0.6-3.05-0.52c-3.48,0.13-15.94,1.42-16.07,1.44 C169.92,163.1,169.62,162.86,169.59,162.54z M242.33,127.45c0.1,0,0.2-0.02,0.29-0.07c0.09-0.05,9.15-5.09,10.79-5.73 c0.31-0.12,0.46-0.46,0.34-0.77c-0.12-0.31-0.46-0.46-0.77-0.34c-1.72,0.66-10.57,5.59-10.94,5.8c-0.29,0.16-0.39,0.52-0.23,0.81 C241.92,127.34,242.13,127.45,242.33,127.45z M123.43,42.33c0,0.83,0.68,1.51,1.51,1.51s1.51-0.68,1.51-1.51 c0-0.83-0.68-1.51-1.51-1.51S123.43,41.5,123.43,42.33z M242.11,131.91c0.11,0.17,0.3,0.25,0.49,0.25c0.12,0,0.24-0.03,0.34-0.11 c0.08-0.05,7.84-5.47,11.65-6.87c0.31-0.11,0.47-0.45,0.35-0.76c-0.11-0.31-0.46-0.47-0.76-0.35c-3.96,1.45-11.6,6.78-11.92,7.01 C241.99,131.27,241.92,131.64,242.11,131.91z M277.22,137.92c0.02,0,0.05,0,0.07,0c0.3,0,0.55-0.22,0.59-0.52 c0.04-0.33-0.19-0.62-0.52-0.66c-4.93-0.62-10.03-7.17-10.08-7.24c-0.2-0.26-0.57-0.31-0.83-0.11c-0.26,0.2-0.31,0.57-0.11,0.83 C266.57,130.52,271.8,137.24,277.22,137.92z M278.39,136.09c0.03,0,0.06,0.01,0.09,0.01c0.29,0,0.54-0.21,0.59-0.51 c0.05-0.33-0.18-0.63-0.5-0.68c-3.29-0.49-9.02-6.57-9.08-6.63c-0.23-0.24-0.6-0.25-0.84-0.03c-0.24,0.22-0.25,0.6-0.03,0.84 C268.86,129.36,274.69,135.54,278.39,136.09z M123.17,35.46c1.13,0.11,3.6-0.35,5.02,0.52c-0.05-0.78-0.11-1.57-0.18-2.35 c-1.53-0.67-3.54-1.24-4.97-0.53C122.38,33.43,121.86,35.32,123.17,35.46z M450.22,174.2c1.88,0.68,27.69,15.99,33.54,33.64 c0.08,0.25,0.31,0.41,0.56,0.41c0.06,0,0.13-0.01,0.19-0.03c0.31-0.1,0.48-0.44,0.38-0.75c-6.09-18.39-32.54-33.79-34.31-34.4 c-0.17-0.06-0.47-0.06-0.63,0.05c-0.27,0.18-0.35,0.55-0.16,0.82C449.89,174.09,450.05,174.18,450.22,174.2z M144.38,342.53 c-1.36,0.89-2.77,1.81-4.42,1.89c-3.83,0.2-12.63,1.18-14.25,1.59c-0.32,0.08-0.51,0.4-0.43,0.72c0.07,0.27,0.31,0.45,0.58,0.45 c0.05,0,0.1-0.01,0.14-0.02c1.55-0.39,10.33-1.36,14.03-1.56c1.96-0.1,3.51-1.11,5-2.08c1.45-0.94,2.82-1.84,4.33-1.65 c0.33,0.03,0.62-0.2,0.66-0.52c0.04-0.33-0.2-0.62-0.52-0.66C147.55,340.46,145.94,341.51,144.38,342.53z M174.19,254.38 c-0.17,0.66-17.29,65.49-17.93,67.54c-0.08,0.25-0.16,0.48-0.25,0.7c-0.47-1.34-3.83-1.96-3.83-1.96l-0.59,5.76 c0,0,0.13-0.05,0.34-0.14c0.11,0.13,0.27,0.21,0.44,0.21c0.01,0,0.02,0,0.03,0c2.51-0.12,4.14-1.5,4.99-4.21 c0.65-2.08,17.24-64.92,17.95-67.59c0.08-0.32-0.11-0.64-0.42-0.73C174.6,253.87,174.27,254.06,174.19,254.38z M156.06,157.08 c-0.68-0.16-1.46-0.11-1.46-0.11l1.71,2.29C156.37,158.57,156.29,157.84,156.06,157.08z M131.81,170.66c0.03,0,0.06,0,0.09-0.01 c0.21-0.03,20.85-3.15,24.46-3.53c3.62-0.39,4.38-1.29,4.54-1.67c0.13-0.3,0.01-0.68-0.29-0.81c-0.3-0.13-0.63-0.02-0.76,0.28 c-0.01,0.01-0.56,0.69-3.61,1.02c-3.64,0.39-23.66,3.41-24.51,3.54c-0.32,0.05-0.55,0.35-0.5,0.68 C131.27,170.45,131.53,170.66,131.81,170.66z M200.76,170.82c-3.94,1.4-16.09,2.18-16.21,2.19c-0.33,0.02-0.58,0.3-0.56,0.63 c0.02,0.31,0.28,0.56,0.59,0.56c0.01,0,0.03,0,0.04,0c0.51-0.03,12.44-0.81,16.53-2.26c0.31-0.11,0.47-0.45,0.36-0.76 C201.41,170.87,201.06,170.71,200.76,170.82z M357.48,66.84c0.65-1.4,0.58-2.63-0.2-3.36c-1.04-0.99-3.06-0.8-5.53,0.52 c-3.97,2.13-9.17,1.03-9.22,1.02c-0.32-0.06-0.64,0.13-0.71,0.46c-0.07,0.32,0.13,0.64,0.45,0.71c0.23,0.05,5.67,1.2,10.03-1.14 c2.31-1.24,3.68-1.15,4.15-0.71c0.38,0.36,0.35,1.1-0.06,2c-1.1,2.38-4.48,3.98-9.03,4.27c-0.33,0.02-0.58,0.3-0.56,0.63 c0.02,0.31,0.28,0.56,0.59,0.56c0.01,0,0.03,0,0.04,0C352.52,71.47,356.18,69.66,357.48,66.84z M354.72,88.47 c1.56,0.4,2.59,0.67,2.59,0.67c0.46,1.71,0.79,3.45,1.02,5.18c3.48-1.35,7.8-3.22,8.14-4.26c0.59-1.77,0.39-2.95-5.7-1.96 C358.56,88.45,356.48,88.52,354.72,88.47z M332.98,61c0.33,0,0.59-0.27,0.59-0.59c0-2.63-0.29-13.27-0.3-13.37 c-0.01-0.33-0.3-0.59-0.61-0.58c-0.33,0.01-0.59,0.28-0.58,0.61c0,0.11,0.3,10.73,0.3,13.34C332.39,60.73,332.65,61,332.98,61z M342.89,222.68c5.28-8.35,7.87-18.7,7.87-18.7c-2.55-13.16-2.95-30.05-2.95-30.05C342.9,192.88,342.85,217.61,342.89,222.68z M402.03,194.52c0.05,0.29,0.3,0.5,0.59,0.5c0.03,0,0.07,0,0.1-0.01l47.01-7.73c0.32-0.05,0.54-0.36,0.49-0.68 c-0.05-0.33-0.37-0.55-0.68-0.49l-47.01,7.73C402.19,193.89,401.97,194.2,402.03,194.52z M416.89,148.53c0.15,0,0.3-0.05,0.41-0.16 c0.24-0.23,0.25-0.6,0.02-0.84c-15.64-16.4-17.37-48.01-17.39-48.33c-0.02-0.33-0.31-0.58-0.62-0.57c-0.33,0.02-0.58,0.3-0.56,0.62 c0.02,0.32,1.77,32.37,17.71,49.09C416.57,148.47,416.73,148.53,416.89,148.53z M350.76,203.98c0,0,0.05,0.53,0.22,1.39 C350.92,204.92,350.85,204.46,350.76,203.98z M335.83,52.15c0.18,0,0.36-0.08,0.48-0.24c0.07-0.09,1.74-2.21,5.05-0.52 c0.29,0.15,0.65,0.03,0.8-0.26s0.03-0.65-0.26-0.8c-4.23-2.17-6.52,0.83-6.54,0.86c-0.2,0.26-0.14,0.63,0.12,0.83 C335.58,52.12,335.71,52.15,335.83,52.15z M342.09,53.08c-0.08,0.03-0.15,0.08-0.22,0.14c-1.1,1.18-3.51,1.38-3.54,1.38 c-0.33,0.02-0.57,0.31-0.55,0.64c0.02,0.31,0.28,0.55,0.59,0.55c0.02,0,0.03,0,0.05,0c0.07-0.01,1.17-0.09,2.34-0.53 c-1.06,1.68-1.85,3.05-1.26,4.39c0.22,0.5,0.74,0.88,1.39,1.18c-0.02,0.04-0.04,0.07-0.05,0.11c-0.01,0.03-0.79,3.29-3.64,5.77 c-0.25,0.22-0.27,0.59-0.06,0.84c0.12,0.13,0.28,0.2,0.45,0.2c0.14,0,0.28-0.05,0.39-0.15c3.08-2.69,3.95-6.09,4.01-6.38 c1.61,0.47,3.46,0.6,4.01,0.63c0.01,0,0.02,0,0.03,0c0.31,0,0.58-0.25,0.59-0.56c0.02-0.33-0.23-0.61-0.56-0.63 c-2.38-0.13-5.15-0.75-5.48-1.51c-0.37-0.84,0.35-1.98,1.34-3.55c0.43-0.68,0.91-1.44,1.39-2.31c1.77-3.22,0.78-6.87,0.74-7.02 c-0.09-0.32-0.42-0.5-0.73-0.41c-0.32,0.09-0.5,0.41-0.42,0.73c0.01,0.03,0.89,3.35-0.63,6.13 C342.22,52.86,342.16,52.96,342.09,53.08z M356.07,55.19c0.03,0,0.06,0.01,0.09,0.01c0.29,0,0.54-0.21,0.59-0.51 c0.05-0.32-0.18-0.63-0.5-0.67c-4.92-0.72-6.05-4.05-6.1-4.2c-0.1-0.31-0.43-0.49-0.74-0.39c-0.31,0.1-0.49,0.43-0.39,0.74 C349.06,50.34,350.37,54.36,356.07,55.19z M351.61,58.65c-0.21-0.25-0.58-0.29-0.84-0.08c-0.25,0.21-0.29,0.58-0.09,0.83 c0.14,0.17,3.31,3.98,10.52,3.98c0.35,0,0.71-0.01,1.07-0.03c0.33-0.02,0.58-0.3,0.56-0.62c-0.02-0.33-0.26-0.59-0.62-0.56 C354.89,62.55,351.64,58.69,351.61,58.65z M351.84,49.31c0.12,0,0.23-0.03,0.34-0.1c0.11-0.08,2.79-1.85,7.21-0.23 c0.31,0.11,0.65-0.04,0.76-0.35c0.11-0.31-0.05-0.65-0.35-0.76c-5.05-1.86-8.18,0.27-8.31,0.37c-0.27,0.19-0.33,0.56-0.15,0.83 C351.47,49.22,351.65,49.31,351.84,49.31z M332.66,203.02c0.09,0.23,0.32,0.38,0.55,0.38c0.07,0,0.15-0.01,0.22-0.04 c0.31-0.12,0.46-0.47,0.33-0.77l-8.38-21.22c1.18-0.92,17.74-14.08,18.51-33.93c0.01-0.33-0.24-0.6-0.57-0.62 c-0.38-0.02-0.61,0.24-0.62,0.57c-0.71,18.41-15.43,30.94-17.77,32.82l-1.25-3.16c-0.12-0.31-0.47-0.46-0.77-0.33 c-0.31,0.12-0.46,0.47-0.33,0.77L332.66,203.02z M147.85,388.22l25.19,2.42c0.05-2.56,0.54-4.58,0.54-4.58l-25.53,0.59 C148.05,386.66,147.98,387.22,147.85,388.22z M199.29,179.73c-5.58,2.29-15.26,2.31-15.36,2.31c-0.33,0-0.59,0.27-0.59,0.59 c0,0.33,0.27,0.59,0.59,0.59c0.41,0,10-0.03,15.81-2.4c0.3-0.12,0.45-0.47,0.33-0.78C199.94,179.75,199.59,179.61,199.29,179.73z M119.08,43.4c0.01,0.02,0.95,2.42,2.77,6.2c0.58,1.2,0.74,2.12,0.49,2.74c-0.3,0.76-1.24,1.11-2.14,1.45l-0.26,0.1 c-0.31,0.12-0.46,0.46-0.34,0.77c0.09,0.24,0.32,0.38,0.56,0.38c0.07,0,0.14-0.01,0.21-0.04l0.25-0.1c1.03-0.39,2.32-0.88,2.82-2.12 c0.38-0.96,0.21-2.17-0.53-3.7c-1.8-3.73-2.72-6.09-2.73-6.11c-0.12-0.31-0.47-0.46-0.77-0.34 C119.12,42.75,118.96,43.09,119.08,43.4z M121.23,237.16c-1.61,15.1-4.38,46.8-4.41,47.17c-0.03,0.33,0.21,0.62,0.54,0.64 c0.02,0,0.03,0,0.05,0c0.31,0,0.57-0.23,0.59-0.54c0.04-0.44,3.81-43.7,5.1-53.13c1.26-9.21,5.54-13.49,5.59-13.54 c0.23-0.23,0.24-0.61,0.01-0.84c-0.23-0.24-0.6-0.24-0.84-0.01c-0.19,0.18-4.61,4.57-5.94,14.23c-0.16,1.15-0.35,2.8-0.57,4.81 l-28.43-12.03l-0.99-7.18c-0.04-0.33-0.34-0.56-0.67-0.51c-0.33,0.04-0.55,0.34-0.51,0.67l0.89,6.48l-9.37-3.97 c-0.3-0.13-0.65,0.01-0.78,0.32c-0.13,0.3,0.01,0.65,0.32,0.78l10.14,4.29c0.11,0.12,0.26,0.21,0.44,0.21c0.01,0,0.03,0,0.04,0 l28.66,12.13C121.15,237.15,121.19,237.15,121.23,237.16z M125.27,320.46c0,0-8.72,0.5-9.83,2.58c0.95,1.88,4.72,2.97,9.45,3.59 L125.27,320.46z M72.38,199.51c-0.17,0.07-16.97,7.55-35.99,15.31c-18.72,7.64-32.5,17.85-34.86,21.99 c-0.08,0.15-0.1,0.31-0.05,0.46c-0.03,0.03-0.06,0.06-0.09,0.09c-1.05,6.29,7.46,9.82,7.46,9.82l1.4-16.8 c6.06-4.41,15.27-9.85,26.59-14.47c19.04-7.77,35.86-15.25,36.03-15.33c0.3-0.13,0.44-0.48,0.3-0.79 C73.04,199.51,72.69,199.38,72.38,199.51z M336.03,383.3c-0.53-3.7-1.81-13.31-3.42-25.48c-3.13-23.53-7.41-55.77-9.15-66.72 c-2.64-16.65,1.13-28.19,11.53-35.3c10.41-7.11,32.87-20.07,39.76-23.8c6.67-3.61,4.48-9.33,4.46-9.39 c-0.12-0.31-0.47-0.46-0.77-0.33c-0.31,0.12-0.45,0.47-0.33,0.77c0.08,0.19,1.83,4.78-3.92,7.9c-6.9,3.74-29.41,16.73-39.86,23.86 c-10.82,7.39-14.76,19.32-12.04,36.46c1.74,10.94,6.02,43.16,9.14,66.69c1.62,12.17,2.89,21.78,3.42,25.49 c0.24,1.66,0.49,3.2,0.73,4.64c1.33,8.02,2.13,12.86-3.44,18.43c-6.71,6.71-10.14,9.63-10.18,9.66c-0.25,0.21-0.28,0.59-0.07,0.84 c0.12,0.14,0.29,0.21,0.45,0.21c0.14,0,0.27-0.05,0.38-0.14c0.03-0.03,3.5-2.98,10.25-9.72c6-6,5.12-11.36,3.78-19.46 C336.52,386.48,336.26,384.95,336.03,383.3z M488.97,235.23c-0.18-1.85-1.62-3.32-3.46-3.55c0,0-1.77,8.45-18.27,8.45 s-27.11-0.2-38.69,16.7c-11.59,16.89-24.75,35.36-24.75,35.36h-36.14v-5.5c0-0.33-0.27-0.59-0.59-0.59c-0.33,0-0.59,0.27-0.59,0.59 v5.63l-0.78,16.37c0,0,16.23,0,35.52,0l3.39,108.96c0.04,1.33,1.13,2.39,2.46,2.4c1.34,0.01,2.44-1.05,2.49-2.38l4.14-108.98 c11.25,0,22.59,0,31.68,0l22.18,108.25c0.27,1.3,1.52,2.16,2.83,1.94c1.32-0.22,2.22-1.44,2.05-2.77l-14.37-107.43 c21.84-0.09,32.57-11.85,32.96-31.62C491.31,261.46,489.68,242.6,488.97,235.23z M292.17,139.62c-0.05-0.01-5.35-0.66-10.97-0.4 c-5.39,0.25-7.82-0.09-10.72-2.48c-2.95-2.44-5.82-5.3-5.85-5.33c-0.23-0.23-0.61-0.23-0.84,0c-0.23,0.23-0.23,0.61,0,0.84 c0.03,0.03,2.94,2.93,5.93,5.41c3.25,2.68,6.06,3.01,11.54,2.75c5.5-0.26,10.71,0.38,10.77,0.39c0.02,0,0.05,0,0.07,0 c0.3,0,0.55-0.22,0.59-0.52C292.72,139.96,292.49,139.66,292.17,139.62z M254.68,128.48c-0.02,0.01-1.62,1.2-6.23,3.89 c-1.12,0.65-1.96,1.23-2.64,1.69c-2.19,1.5-2.78,1.9-6.74,0.86c-5.55-1.45-11.38-0.7-11.62-0.67c-0.33,0.04-0.55,0.34-0.51,0.67 c0.04,0.33,0.34,0.56,0.67,0.51c0.06-0.01,5.85-0.75,11.16,0.64c1.57,0.41,2.7,0.61,3.62,0.61c1.58,0,2.54-0.58,4.09-1.64 c0.66-0.45,1.49-1.02,2.56-1.65c4.69-2.74,6.28-3.92,6.34-3.97c0.26-0.2,0.32-0.57,0.12-0.83 C255.32,128.33,254.94,128.28,254.68,128.48z M201.09,175.56c-6.34,3.04-16.9,2.7-17.01,2.69c-0.3-0.03-0.6,0.24-0.62,0.57 c-0.01,0.33,0.24,0.6,0.57,0.62c0.09,0,0.55,0.02,1.29,0.02c3.08,0,10.95-0.27,16.28-2.83c0.3-0.14,0.42-0.5,0.28-0.79 C201.74,175.54,201.39,175.41,201.09,175.56z M144.12,364.85c-11.61-2.29-18.94,0.62-20.36,1.25c0.65,3.2,2.3,4.77,5.43,5.04 c4.71,0.39,35.55,0,50.87-0.39c6.34-0.16,9.41-2.68,10.39-5.66c-2.3-0.54-5.36-0.96-9.41-1.02 C167.89,363.87,157.09,367.41,144.12,364.85z M120.53,147.14c3.03-8.06,2.35-17.66,2.32-18.1c-0.02-0.33-0.32-0.57-0.64-0.55 c-0.33,0.02-0.57,0.31-0.55,0.64c0.01,0.1,0.63,8.95-1.89,16.59c-1.22,2.94-4.01,9.47-6.95,15.05c0,0,2.01,3.83,4.21,7.88 C118.06,165.62,120.63,156.96,120.53,147.14z M114.2,64.72c0.02,0,0.04,0,0.06,0c0.3,0,0.56-0.23,0.59-0.53 c0.03-0.33-0.2-0.62-0.53-0.65c-3.37-0.36-6.27-2.81-6.99-4.37c-0.37-0.8-0.47-1.91-0.04-2.31c0.4-0.37,1.43-0.15,2.74,0.59 c4.29,2.41,8.66,2.18,8.84,2.17c0.33-0.02,0.58-0.3,0.56-0.63c-0.02-0.33-0.3-0.58-0.63-0.56c-0.04,0-4.21,0.22-8.18-2.02 c-1.9-1.07-3.29-1.21-4.13-0.43c-0.89,0.82-0.79,2.48-0.23,3.69C107.09,61.45,110.18,64.29,114.2,64.72z M59.47,21.31 c0,0-1.38,4.71,1.77,6.87c3.14,2.16,5.3,0.79,5.3,0.79s0.34,3.48,3.15,4.04c0.07,0.99,0.19,2,0.39,3.03 c2.95,15.52,11.2,28.87,11.2,28.87s4.12-11.59,0.39-12.77c-3.73-1.18-5.7-4.52-5.7-9.04s3.73-7.46,5.5-6.29 c1.77,1.18,7.07,2.95,8.45,0c1.37-2.95,3.93-5.11,6.09-11.39c2.16-6.29,4.52-7.46,12.77-8.64c8.25-1.18,10.61-2.16,10.61-2.16 s-12.77-9.04-27.3-6.87c-2.62,0.39-5.2,1.15-7.62,2.22c-0.25-1.63-1.41-3.62-5.34-4.58c0,0-0.98-4.52-5.3-5.3 c-4.32-0.79-5.5,3.34-5.5,3.34s-4.71-2.95-7.66-0.79c-2.95,2.16-1.37,6.48-1.37,6.48s-4.12,2.36-3.73,6.68 C55.93,20.13,59.47,21.31,59.47,21.31z M110.27,41.08c-0.83,0-1.51,0.68-1.51,1.51c0,0.83,0.68,1.51,1.51,1.51 c0.83,0,1.51-0.68,1.51-1.51C111.79,41.76,111.11,41.08,110.27,41.08z M47.67,303.05l12.81,8.06l1.05-12.45H47.68L47.67,303.05z M115.84,34.15c0.13-1.31-2.88-1.57-5.89-1.31c-3.01,0.26-6.42,2.49-6.42,2.49s0,1.05,1.18,0.65c1.18-0.39,4.45-0.39,7.07-0.39 C114.4,35.59,115.71,35.46,115.84,34.15z M95.67,79.32c1.53,1.4,3.36,2.3,4.85,2.86c1.11-3.18,2.35-5.68,2.35-5.68 s-3.54-0.59-7.59-2.42C91.22,72.25,92.53,76.44,95.67,79.32z M38.95,175.46c0.12,0.16,0.3,0.24,0.48,0.24 c0.12,0,0.25-0.04,0.35-0.12c0.26-0.2,0.32-0.57,0.12-0.83l-10.54-14.21c-0.2-0.26-0.57-0.32-0.83-0.12 c-0.26,0.2-0.32,0.57-0.12,0.83L38.95,175.46z M56.46,180.32c-2.17-2.84-3.47-4.62-3.47-4.62s-6.27,3.73-8.49,6.62 c0.01,0.02,0.03,0.05,0.04,0.06C44.93,182.9,49.18,182.46,56.46,180.32z M66.98,121.35c-0.29,0.15-0.4,0.51-0.25,0.8l16.11,30.51 c0.11,0.2,0.31,0.32,0.53,0.32c0.09,0,0.19-0.02,0.28-0.07c0.29-0.15,0.4-0.51,0.25-0.8L67.78,121.6 C67.63,121.31,67.27,121.2,66.98,121.35z M84.8,160.64l2.48,3.5c0,0,1.84-2.59,1.45-3.76C88.34,159.2,84.8,160.64,84.8,160.64z M342.44,270.77c-0.32-0.06-0.64,0.14-0.71,0.46c-0.01,0.04-0.77,3.56-3.34,5.76c-0.25,0.21-0.28,0.59-0.07,0.84 c0.12,0.14,0.28,0.21,0.45,0.21c0.14,0,0.28-0.05,0.39-0.14c2.87-2.46,3.7-6.26,3.73-6.42 C342.96,271.16,342.76,270.84,342.44,270.77z M299.04,270.96c-0.33,0.03-0.56,0.33-0.53,0.65c0.01,0.14,0.3,3.48-2.75,6.17 c-0.25,0.22-0.27,0.59-0.05,0.84c0.12,0.13,0.28,0.2,0.45,0.2c0.14,0,0.28-0.05,0.39-0.15c3.53-3.11,3.16-7.02,3.14-7.19 C299.66,271.17,299.36,270.94,299.04,270.96z" fill="#000000"/></g></svg>