<?xml version="1.0" encoding="UTF-8" standalone="no"?><svg xmlns="http://www.w3.org/2000/svg" xmlns:xlink="http://www.w3.org/1999/xlink" fill="#000000" height="169.1" preserveAspectRatio="xMidYMid meet" version="1" viewBox="-0.0 -0.0 78.4 169.1" width="78.4" zoomAndPan="magnify"><g data-name="Layer 2"><g data-name="Layer 1" fill="#3d9534" fill-rule="evenodd" id="change1_1"><path d="M66.13,93.36c.75-1.24,1.57-2.57,2.59-4a34.19,34.19,0,0,1,3.85-4.49,19.76,19.76,0,0,0,3.7-5,11.91,11.91,0,0,0,1.42-5,5.47,5.47,0,0,0-.15-1.33,3,3,0,0,0-.44-1,2.25,2.25,0,0,0-.75-.69,2.7,2.7,0,0,0-1-.31,6.89,6.89,0,0,0-3.55.88A25.4,25.4,0,0,0,67,75.63a40.59,40.59,0,0,1-7.54,5.05,14.72,14.72,0,0,1-6.31,1.83,4.67,4.67,0,0,1-1.34-.2,2,2,0,0,1-.95-.59,1.37,1.37,0,0,1-.34-.93,2,2,0,0,1,.3-1,6,6,0,0,1,2.22-2,17.28,17.28,0,0,1,3.75-1.54,100.36,100.36,0,0,0,11.86-4c2.86-1.26,4.75-2.56,5.93-4.19a10.27,10.27,0,0,0,1.7-6.17,68.42,68.42,0,0,0-1-10.16c-.07-.48-.14-1.11-.22-1.86s-.15-1.57-.24-2.52c-.31-3.28-.71-7.53-1.34-11.09S72,30,71,29.54c-.37-.16-.8,0-1.3.5a12.15,12.15,0,0,0-2,3.42,20.8,20.8,0,0,1-6.38,7.71,33.05,33.05,0,0,1-10.47,5.4,17.15,17.15,0,0,1-2.3.53,6.68,6.68,0,0,1-1.75.06,1.9,1.9,0,0,1-.74-.23.86.86,0,0,1-.43-.88,1.79,1.79,0,0,1,.24-.62,8.27,8.27,0,0,1,2.12-2,37.74,37.74,0,0,1,4-2.55,33.47,33.47,0,0,0,6.28-4.61,24.31,24.31,0,0,0,4.42-5.41,15.05,15.05,0,0,0,1.2-2.59,10.71,10.71,0,0,0,.56-2.5,8.72,8.72,0,0,0-.13-2.55,8.4,8.4,0,0,0-.89-2.36,10.63,10.63,0,0,0-2-2.42,15.42,15.42,0,0,0-2.92-2.13c-1.1-.64-1.76.3-2.79,1.78a15.27,15.27,0,0,1-9.64,7h0a4.16,4.16,0,0,1-1.6,0,.76.76,0,0,1-.53-.41A.79.79,0,0,1,44,24a4.55,4.55,0,0,1,1.09-1.31l0,0c.85-.62,1.77-1.19,2.69-1.75a26.13,26.13,0,0,0,3.3-2.26c3.6-3.07,4.19-4,3.3-5.09a14.07,14.07,0,0,0-1.46-1.32A27.32,27.32,0,0,1,48.57,8C44.7,3.14,41.9.72,39.17.72S33.64,3.14,29.77,8a27.77,27.77,0,0,1-4.33,4.28A13.09,13.09,0,0,0,24,13.59c-.9,1.06-.31,2,3.3,5.09a27,27,0,0,0,3.31,2.26c.92.56,1.84,1.13,2.68,1.75l0,0q1.41,1.27,1.14,1.95c-.19.46-.9.61-2.14.43h0a15.25,15.25,0,0,1-9.65-7c-1-1.48-1.69-2.42-2.79-1.78a15.42,15.42,0,0,0-2.92,2.13A10.31,10.31,0,0,0,15,20.87a8.24,8.24,0,0,0-1,4.92,10.63,10.63,0,0,0,.56,2.49,14.8,14.8,0,0,0,1.21,2.6,24,24,0,0,0,4.41,5.39,33.06,33.06,0,0,0,6.3,4.61,41.1,41.1,0,0,1,4,2.54,8.44,8.44,0,0,1,2.12,2,1.47,1.47,0,0,1,.24.62.86.86,0,0,1-.07.51.93.93,0,0,1-.35.36,1.84,1.84,0,0,1-.74.24,6.41,6.41,0,0,1-1.76-.07,16.18,16.18,0,0,1-2.3-.52,33,33,0,0,1-10.46-5.39,20.65,20.65,0,0,1-6.39-7.71,12,12,0,0,0-2-3.41c-.5-.52-.93-.66-1.29-.5-1.1.49-1.91,3.27-2.51,6.73s-1,7.81-1.33,11.1c-.09.94-.17,1.8-.24,2.51s-.15,1.39-.22,1.86a68.42,68.42,0,0,0-1,10.16A10.25,10.25,0,0,0,3.84,68.1C5,69.73,6.91,71,9.77,72.29a100.89,100.89,0,0,0,11.87,4,16.53,16.53,0,0,1,3.75,1.54,6,6,0,0,1,2.22,2,2.1,2.1,0,0,1,.31,1,1.42,1.42,0,0,1-.35.92,2.1,2.1,0,0,1-.95.6,4.32,4.32,0,0,1-1.34.19A14.68,14.68,0,0,1,19,80.7a41,41,0,0,1-7.55-5,23.87,23.87,0,0,0-4.78-3.19,6.87,6.87,0,0,0-3.55-.87,2.54,2.54,0,0,0-1,.31,2.33,2.33,0,0,0-.75.68,3.32,3.32,0,0,0-.44,1,5,5,0,0,0-.14,1.32,11.62,11.62,0,0,0,1.42,5,19.57,19.57,0,0,0,3.71,5A35.47,35.47,0,0,1,9.7,89.39c1,1.41,1.84,2.75,2.6,4,1.52,2.49,2.8,4.59,5.05,6.15s5.51,2.63,11,3c2.7.2,4.3-1.28,5.79-2.68,2.39-2.22,4.56-4.24,10.14,0,.41.31.83.59,1.24.85A12.15,12.15,0,0,0,56,101.91a19,19,0,0,0,8.86-6.67c.45-.61.88-1.24,1.28-1.88Zm3.18-3.57c-1,1.39-1.82,2.71-2.57,3.94-.41.67-.85,1.32-1.32,1.94a19.68,19.68,0,0,1-9.2,6.92,12.88,12.88,0,0,1-11.09-1.25c-.43-.27-.86-.56-1.29-.88-5.1-3.86-7.06-2-9.22,0-1.61,1.5-3.32,3.09-6.34,2.86-5.62-.42-9-1.53-11.34-3.17s-3.69-3.81-5.26-6.36c-.75-1.23-1.55-2.55-2.57-3.94a32.74,32.74,0,0,0-3.76-4.39A20.4,20.4,0,0,1,1.5,80.25,12.44,12.44,0,0,1,0,74.93a5.5,5.5,0,0,1,.17-1.51,3.71,3.71,0,0,1,.54-1.23,3,3,0,0,1,1-.91A3.3,3.3,0,0,1,3,70.88,7.71,7.71,0,0,1,7,71.82a25.82,25.82,0,0,1,4.92,3.29,39.91,39.91,0,0,0,7.41,4.94,13.81,13.81,0,0,0,6,1.75,3.64,3.64,0,0,0,1.12-.16,1.46,1.46,0,0,0,.63-.37.71.71,0,0,0,.17-.46,1.33,1.33,0,0,0-.21-.66,5.37,5.37,0,0,0-2-1.72A16,16,0,0,0,21.44,77a100.9,100.9,0,0,1-12-4c-3-1.3-5-2.68-6.22-4.41A11,11,0,0,1,1.41,62a69.42,69.42,0,0,1,1-10.28c.07-.48.14-1.1.22-1.83s.15-1.6.24-2.51c.3-3.31.7-7.58,1.33-11.15s1.56-6.66,2.93-7.26a1.8,1.8,0,0,1,2.1.65,12.9,12.9,0,0,1,2.17,3.62,19.85,19.85,0,0,0,6.16,7.43,32.24,32.24,0,0,0,10.23,5.27,15.68,15.68,0,0,0,2.21.5,5.8,5.8,0,0,0,1.56.07,1.08,1.08,0,0,0,.45-.14.19.19,0,0,0,.08-.07.16.16,0,0,0,0-.1.87.87,0,0,0-.14-.33A7.62,7.62,0,0,0,30,44a37.72,37.72,0,0,0-4-2.49,34.58,34.58,0,0,1-6.43-4.71,25.25,25.25,0,0,1-4.55-5.56,16.69,16.69,0,0,1-1.26-2.73,11.51,11.51,0,0,1-.6-2.65,9.19,9.19,0,0,1,.14-2.77,9,9,0,0,1,1-2.57,11.11,11.11,0,0,1,2.07-2.59,16.94,16.94,0,0,1,3.06-2.24c1.67-1,2.47.19,3.74,2a14.64,14.64,0,0,0,9.21,6.69c.85.13,1.3.13,1.35,0s-.26-.52-.94-1.14-1.72-1.15-2.62-1.7a26.89,26.89,0,0,1-3.39-2.32c-4.06-3.44-4.65-4.61-3.39-6.1A13.55,13.55,0,0,1,25,11.72a26.52,26.52,0,0,0,4.23-4.18c4-5,6.95-7.54,10-7.54s5.95,2.51,10,7.53a27,27,0,0,0,4.23,4.18,12.71,12.71,0,0,1,1.55,1.4c1.27,1.49.68,2.66-3.37,6.11a27,27,0,0,1-3.4,2.32c-.9.55-1.8,1.11-2.61,1.71a3.93,3.93,0,0,0-.91,1l0,.09.07,0a3.64,3.64,0,0,0,1.28,0,14.65,14.65,0,0,0,9.2-6.71c1.27-1.81,2.07-3,3.74-2a16.46,16.46,0,0,1,3.06,2.23A10.86,10.86,0,0,1,64,20.5a8.81,8.81,0,0,1,1,2.56,9.19,9.19,0,0,1,.14,2.77,11.45,11.45,0,0,1-.59,2.66,15.47,15.47,0,0,1-1.26,2.72,25,25,0,0,1-4.54,5.57,34.34,34.34,0,0,1-6.43,4.71A37.82,37.82,0,0,0,48.35,44a7.8,7.8,0,0,0-1.93,1.82.84.84,0,0,0-.14.33.17.17,0,0,0,0,.1.36.36,0,0,0,.09.08,1.28,1.28,0,0,0,.45.13,5.8,5.8,0,0,0,1.56-.07,15.27,15.27,0,0,0,2.2-.5A32.18,32.18,0,0,0,60.81,40.6,20,20,0,0,0,67,33.17a12.63,12.63,0,0,1,2.16-3.63,1.83,1.83,0,0,1,2.11-.66c1.36.61,2.28,3.59,2.93,7.26s1,7.85,1.34,11.16c.09.9.16,1.73.24,2.51s.15,1.34.22,1.83a68.07,68.07,0,0,1,1,10.27,11,11,0,0,1-1.84,6.58c-1.26,1.74-3.25,3.11-6.22,4.43a101.28,101.28,0,0,1-12,4,16.25,16.25,0,0,0-3.59,1.47,5.46,5.46,0,0,0-2,1.72,1.39,1.39,0,0,0-.21.66.69.69,0,0,0,.17.46,1.36,1.36,0,0,0,.64.38,3.54,3.54,0,0,0,1.12.16,14,14,0,0,0,6-1.76,40,40,0,0,0,7.41-5,25.21,25.21,0,0,1,4.92-3.29,7.58,7.58,0,0,1,3.93-.94,3.4,3.4,0,0,1,1.33.4,3,3,0,0,1,1,.9,3.73,3.73,0,0,1,.55,1.23,6,6,0,0,1,.16,1.51,12.45,12.45,0,0,1-1.49,5.33,20.53,20.53,0,0,1-3.84,5.18,34,34,0,0,0-3.76,4.39ZM45.22,62.68c-.26-1.15,4.68-3.77,9-5.46a31.18,31.18,0,0,1,4.69-1.48c1.61-.32,2.42-.08,1.79,1a11.65,11.65,0,0,1-3,2.62,42.72,42.72,0,0,1-6.28,3.27,16.16,16.16,0,0,1-3.62,1.12c-1.15.18-2.05,0-2.43-.7a1.35,1.35,0,0,1-.13-.37Zm9.29-4.79a30.84,30.84,0,0,1,4.56-1.45c.68-.13,1.1-.17,1-.06a11.53,11.53,0,0,1-2.84,2.39A41.55,41.55,0,0,1,51.12,62,15.42,15.42,0,0,1,47.68,63c-.85.13-1.49.06-1.7-.33a1.06,1.06,0,0,1-.06-.19c-.17-.76,4.5-3,8.59-4.63ZM30,62.53a.6.6,0,0,1-.06.19c-.21.39-.84.46-1.7.33A15.42,15.42,0,0,1,24.82,62a42,42,0,0,1-6.16-3.19c-.84-.59-1.49-1.08-2-1.48a4.49,4.49,0,0,1-.88-.92l-.06-.09c-.4-.36-.58-.59-.6-.71a4.92,4.92,0,0,1,1.42.24A32.67,32.67,0,0,1,21,57.29c4.3,1.69,9.24,4.19,9,5.24Zm-8.73-5.91c4.56,1.79,9.76,4.61,9.44,6.07a1.69,1.69,0,0,1-.14.36c-.38.72-1.27.88-2.43.71a16.39,16.39,0,0,1-3.61-1.11,42.43,42.43,0,0,1-6.29-3.27c-.87-.61-1.54-1.11-2-1.52a5.38,5.38,0,0,1-1-1.06,2.18,2.18,0,0,1-.78-1.12c-.1-.77.81-.88,2.29-.55A34.18,34.18,0,0,1,21.29,56.62Z"/><path d="M38.81.42A.36.36,0,1,1,39.52.3c1.61,9.76.62,24.05-.46,39.52-1.3,18.81-2.73,39.38.25,55.58,2,11,3.74,19.21,5.13,25.89,3.94,18.88,5.31,25.43,3.9,47.46a.35.35,0,0,1-.38.33.36.36,0,0,1-.34-.38c1.4-21.93,0-28.45-3.88-47.27-1.39-6.67-3.1-14.89-5.13-25.9-3-16.29-1.57-36.91-.26-55.76C39.42,24.34,40.41,10.09,38.81.42Z"/></g></g></svg>